<?xml version="1.0" encoding="UTF-8"?>
<!DOCTYPE svg PUBLIC "-//W3C//DTD SVG 1.1//EN" "http://www.w3.org/Graphics/SVG/1.1/DTD/svg11.dtd">
<!-- Creator: CorelDRAW X7 -->
<svg xmlns="http://www.w3.org/2000/svg" xml:space="preserve" width="2186px" height="1858px" version="1.1" style="shape-rendering:geometricPrecision; text-rendering:geometricPrecision; image-rendering:optimizeQuality; fill-rule:evenodd; clip-rule:evenodd"
viewBox="0 0 22618068 19218627"
 xmlns:xlink="http://www.w3.org/1999/xlink">
 <defs>
  <style type="text/css">
   <![CDATA[
    .fil0 {fill:#2B2A29;fill-rule:nonzero;fill-opacity:0.501961}
   ]]>
  </style>
 </defs>
 <g id="Capa_x0020_1">
  <metadata id="CorelCorpID_0Corel-Layer"/>
  <path class="fil0" d="M4382141 16730177l-674568 541243 -832037 -489792 -1240444 995260 307912 910319 -662338 531420 -1280666 -4056330 661629 -530846 3720512 2098726zm-2128977 -308327l-1348245 -799855 500874 1479726 847371 -679871zm2462303 40894l-2481510 -3092837 606183 -486371 2935844 1051427 -1662998 -2072688 578826 -464415 2481510 3092837 -625622 501962 -2884651 -1027431 1631244 2033089 -578826 464427zm637962 -5595717l626343 -502548 1344726 1675999c213722,266382 359693,432086 437780,498431 128303,105333 272967,157322 433539,153913 161879,-3250 328560,-74275 501351,-212915 174940,-140363 278526,-282632 309463,-426978 30924,-144334 13147,-275631 -53760,-395908 -66920,-120276 -197923,-302719 -394307,-547499l-1373622 -1712006 626343 -502535 1304870 1626331c298064,371483 492346,647542 581539,828042 89205,180488 131260,359754 125457,538372 -5083,178032 -59014,358580 -159961,542526 -101644,184520 -273493,374452 -517552,570274 -294460,236251 -544775,381489 -751568,434968 -206781,53492 -398046,61397 -574391,23020 -176358,-38378 -325225,-105920 -449765,-203617 -183140,-144187 -413563,-390055 -691406,-736344l-1325079 -1651526zm5618272 576078l-2460727 -3066923 626331 -502535 2041373 2544250 1550737 -1244219 419354 522672 -2177068 1746755zm5407421 -4338608l-674580 541243 -832025 -489792 -1240443 995260 307911 910307 -662338 531432 -1280666 -4056330 661630 -530845 3720511 2098725zm-2128989 -308327l-1348233 -799854 500874 1479725 847359 -679871zm-19207 -3051943l1138946 -913825c257011,-206207 468435,-343882 634823,-412317 223459,-91710 455202,-121437 693824,-88057 238769,32098 470683,120558 697209,264244 225231,143540 454872,360462 687092,649876 204472,254847 348403,499126 432929,734254 103757,287153 139752,557677 107972,811571 -23080,192474 -103378,391815 -239599,598132 -102267,154242 -268520,323135 -498907,507985l-1172767 940974 -2481522 -3092837zm1045709 20124l1642790 2047494 464366 -372570c173511,-139215 290671,-249802 352117,-331053 81288,-106641 130161,-216837 147865,-330455 18425,-114191 -7294,-256876 -76437,-428603 -68435,-172301 -199463,-378398 -391240,-617424 -191778,-239013 -359375,-405119 -504674,-499188 -144579,-94654 -283329,-146631 -416678,-157981 -132776,-10606 -267800,17252 -404656,85625 -101986,49887 -280702,176700 -534120,380036l-279333 224119zm7341433 -1665626l-674581 541243 -832025 -489792 -1240455 995260 307924 910320 -662338 531419 -1280666 -4056330 661617 -530845 3720524 2098725zm-2128990 -308327l-1348233 -799854 500874 1479725 847359 -679871z"/>
 </g>
</svg>
