<?xml version="1.0" encoding="UTF-8" standalone="no"?><!DOCTYPE svg PUBLIC "-//W3C//DTD SVG 1.1//EN" "http://www.w3.org/Graphics/SVG/1.1/DTD/svg11.dtd"><svg xmlns="http://www.w3.org/2000/svg" version="1.1" width="460" height="145"><path fill="none" stroke="#000000" stroke-width="2" stroke-linecap="round" stroke-linejoin="round" d="M 1 144 c 0.05 -0.35 0.55 -14.33 3 -20 c 4.4 -10.19 11.61 -21.76 19 -31 c 9.63 -12.04 20.95 -24.85 33 -34 c 14.71 -11.16 32.67 -20.83 50 -29 c 17.93 -8.46 37.11 -15.93 56 -21 c 16.62 -4.46 34.55 -6.4 52 -8 c 11.61 -1.07 24.03 -0.75 35 0 c 2.97 0.2 7.39 1.26 9 3 c 1.99 2.14 3.2 7.29 4 11 c 1.16 5.43 1.64 11.24 2 17 c 0.32 5.04 1.01 10.77 0 15 c -0.79 3.29 -6.15 10.14 -6 10 c 0.31 -0.27 9.46 -13.6 15 -18 c 4.97 -3.94 12.45 -6.73 19 -9 c 9.67 -3.36 19.82 -5.96 30 -8 c 8.25 -1.65 16.82 -2.81 25 -3 c 6.21 -0.14 13.26 0.04 19 2 c 18.57 6.35 39.34 17.27 57 24 c 1.71 0.65 4.31 0.66 6 0 c 9.3 -3.62 30 -14 30 -14"/></svg>