<?xml version="1.0" encoding="UTF-8" standalone="no"?><!DOCTYPE svg PUBLIC "-//W3C//DTD SVG 1.1//EN" "http://www.w3.org/Graphics/SVG/1.1/DTD/svg11.dtd"><svg xmlns="http://www.w3.org/2000/svg" version="1.1" width="450" height="94"><path fill="none" stroke="#000000" stroke-width="2" stroke-linecap="round" stroke-linejoin="round" d="M 1 83 c 0.09 -0.21 2.34 -9.2 5 -12 c 8.56 -9.02 20.55 -19.83 32 -27 c 15.53 -9.73 33.58 -18.14 51 -25 c 13.69 -5.39 28.35 -8.9 43 -12 c 13.92 -2.95 28.32 -5.42 42 -6 c 9.4 -0.4 19.9 0.6 29 3 c 15.6 4.11 32.26 9.98 47 17 c 12.85 6.12 25.4 14.27 37 23 c 16.8 12.65 31.63 27.85 48 41 c 3.96 3.18 9.69 9.06 13 8 c 10.91 -3.51 27.95 -17.8 43 -26 c 19.42 -10.58 58 -29 58 -29"/></svg>