<?xml version="1.0" encoding="UTF-8" standalone="no"?><!DOCTYPE svg PUBLIC "-//W3C//DTD SVG 1.1//EN" "http://www.w3.org/Graphics/SVG/1.1/DTD/svg11.dtd"><svg xmlns="http://www.w3.org/2000/svg" version="1.1" width="1253" height="314"><path fill="none" stroke="#000000" stroke-width="2" stroke-linecap="round" stroke-linejoin="round" d="M 193 247 c -0.09 -0.1 -3.6 -3.89 -5 -6 c -1.21 -1.81 -3.3 -4.2 -3 -6 c 2.48 -14.9 7.37 -39.58 13 -54 c 1.58 -4.06 7.72 -7.05 12 -10 c 6.4 -4.4 12.99 -8.22 20 -12 c 10.76 -5.79 20.98 -11.25 32 -16 c 8.48 -3.65 17.44 -7.22 26 -9 c 6.85 -1.43 14.41 -0.82 22 -1 c 7.24 -0.17 13.95 -0.24 21 0 c 2.71 0.09 6.1 0.05 8 1 c 1.51 0.76 3.18 3.19 4 5 c 2.02 4.48 4.32 10.02 5 15 c 1.25 9.14 1.47 20.01 1 29 c -0.15 2.94 -1.61 6.37 -3 9 c -1.47 2.78 -3.68 6.71 -6 8 c -2.82 1.57 -7.97 1.77 -12 2 c -7.61 0.44 -15.55 0.73 -23 0 c -5.98 -0.58 -12.87 -2.08 -18 -4 c -2.17 -0.81 -5.26 -3.1 -6 -5 c -1.23 -3.17 -1.53 -9 -1 -13 c 0.73 -5.44 2.08 -12.74 5 -17 c 4.31 -6.29 12.15 -13.63 19 -18 c 7.98 -5.09 18.56 -8.92 28 -12 c 6.62 -2.16 14 -3.3 21 -4 c 6.22 -0.62 12.81 -0.7 19 0 c 8.31 0.94 17.76 1.98 25 5 c 7.8 3.25 17 9.37 23 15 c 3.82 3.58 7.34 10.21 9 15 c 1.04 3.01 0.37 7.47 0 11 c -0.28 2.65 -1.03 5.67 -2 8 c -0.59 1.41 -2.82 4.31 -3 4 c -0.33 -0.55 -0.71 -6.38 0 -9 c 1.14 -4.17 3.51 -9.06 6 -13 c 3.73 -5.88 7.99 -12.69 13 -17 c 6.3 -5.42 14.89 -10.2 23 -14 c 18.23 -8.54 37.08 -17.29 56 -23 c 15.88 -4.79 33.62 -7.63 50 -9 c 10.98 -0.92 23.84 -0.15 34 2 c 6 1.27 12.69 5.4 18 9 c 4.67 3.16 10.29 7.7 13 12 c 2.37 3.77 3.21 10.08 4 15 c 0.51 3.17 0.58 7.28 0 10 c -0.29 1.36 -2.75 4.25 -3 4 c -0.35 -0.35 -0.98 -5.49 0 -7 c 2.08 -3.21 7.03 -7.26 11 -10 c 5.5 -3.79 11.9 -7.69 18 -10 c 5.75 -2.18 12.48 -3.11 19 -4 c 15.86 -2.16 31.03 -4.3 47 -5 c 22.64 -0.99 44.53 -1.06 67 0 c 13.19 0.62 27.41 1.8 39 5 c 6.47 1.79 13.23 6.8 19 11 c 5.02 3.65 10.25 8.28 14 13 c 3.6 4.54 7.41 10.74 9 16 c 1.48 4.88 1.4 11.78 1 17 l -3 9"/><path fill="none" stroke="#000000" stroke-width="2" stroke-linecap="round" stroke-linejoin="round" d="M 793 216 c 0.98 -0.02 37.36 0.6 56 -1 c 16.52 -1.42 32.75 -4.35 49 -8 c 13.67 -3.07 26.83 -7.23 40 -12 c 10.03 -3.63 20.03 -7.78 29 -13 c 9.09 -5.29 18.57 -12.2 26 -19 c 3.65 -3.34 6.73 -8.66 9 -13 c 1.19 -2.26 1.65 -5.36 2 -8 c 0.3 -2.24 0.37 -4.79 0 -7 c -0.6 -3.6 -1.72 -7.59 -3 -11 c -0.65 -1.74 -2.68 -5.44 -3 -5 c -0.93 1.27 -4.34 10.74 -5 16 c -0.94 7.53 -0.5 16.48 0 24 c 0.13 1.98 0.94 4.36 2 6 c 2.39 3.69 5.67 7.67 9 11 c 4.98 4.98 10.44 9.41 16 14 c 2.25 1.86 4.67 3.73 7 5 c 1.12 0.61 3.93 0.32 4 1 c 0.16 1.57 -1.83 6.19 -3 9 c -0.44 1.07 -1.18 2.29 -2 3 c -1.33 1.14 -3.3 2.69 -5 3 c -4.97 0.9 -15.87 1.41 -17 1 c -0.52 -0.19 4.47 -4.49 6 -5 c 0.71 -0.24 2.85 1.15 3 2 c 0.63 3.55 0.25 10.17 0 15 c -0.07 1.33 -0.17 3.45 -1 4 c -2.35 1.57 -7.47 3.12 -11 4 c -1.51 0.38 -3.57 0.55 -5 0 c -15.49 -5.91 -32.55 -14.41 -50 -21 c -34.49 -13.02 -66.12 -24.89 -101 -36 c -27.3 -8.7 -53.55 -15.45 -81 -22 c -9.25 -2.21 -18.56 -3.56 -28 -4 c -19.03 -0.9 -38.05 -1.38 -57 0 c -17.82 1.3 -34.84 5.92 -53 8 c -14.61 1.67 -28.39 2.63 -43 3 c -12.21 0.31 -23.67 -0.29 -36 -1 c -11.35 -0.66 -22.45 -0.8 -33 -3 c -11.38 -2.38 -23.58 -6.25 -34 -11 c -8.01 -3.65 -16.43 -9.3 -23 -15 c -5.6 -4.87 -10.43 -11.57 -15 -18 c -7.9 -11.11 -14.37 -22.7 -22 -34 c -1.47 -2.18 -3.19 -4.37 -5 -6 c -1.35 -1.22 -3.26 -2.3 -5 -3 c -3.12 -1.25 -6.61 -2.5 -10 -3 c -10.12 -1.48 -20.8 -3.15 -31 -3 c -12.52 0.18 -25.97 1.29 -38 4 c -11.06 2.49 -22.02 7.36 -33 12 c -13.15 5.56 -25.53 11.35 -38 18 c -7.73 4.12 -15.24 8.73 -22 14 c -6.78 5.29 -12.7 11.7 -19 18 c -2.9 2.9 -6.49 8.09 -8 9 c -0.45 0.27 -1.7 -1.92 -2 -3 c -4.09 -14.59 -9.11 -31.11 -12 -47 c -2.45 -13.5 -3.05 -27.06 -4 -41 c -0.41 -6.09 -1.38 -12.74 0 -18 c 2.02 -7.72 7.14 -17.87 11 -24 c 0.98 -1.56 6.18 -3.34 6 -3 c -0.89 1.71 -12.07 18.86 -19 28 c -8 10.55 -16.76 19.5 -25 30 c -5.44 6.94 -10.35 13.79 -15 21 c -2.02 3.12 -5.76 10.3 -5 10 c 6.62 -2.63 59.8 -28.6 88 -43 c 2.25 -1.15 6.12 -5.07 6 -5 c -0.87 0.53 -31.87 20.57 -49 31 c -14.69 8.94 -28.04 16.8 -43 25 c -10.09 5.53 -20.19 9.7 -30 15 c -2.52 1.36 -7.41 5.04 -7 5 c 2.29 -0.23 30.9 -6.89 47 -9 c 25.34 -3.32 49.83 -4.3 75 -7 c 3.08 -0.33 8.57 -2.09 9 -2 c 0.23 0.05 -2.52 2.33 -4 3 c -45.32 20.46 -91.95 40.13 -140 62 c -13.33 6.07 -38.8 19.13 -38 19 c 1.83 -0.3 60.88 -19.97 93 -28 c 44.3 -11.08 128.66 -27.82 131 -28 c 1.89 -0.15 -68.54 17.83 -105 26 c -43.7 9.79 -83.76 16.51 -127 26 c -9.71 2.13 -27.5 7.89 -28 8 c -0.18 0.04 6.51 -3.07 10 -4 c 29.05 -7.79 57.74 -18.03 87 -22 c 43.77 -5.94 131.65 -7.98 134 -8 c 0.68 -0.01 -25.6 3.38 -38 7 c -33.5 9.78 -64.47 21.77 -99 33 c -23.24 7.56 -45.39 12.99 -67 21 c -7.71 2.86 -22.91 12 -22 12 c 2.55 0 45.31 -9.57 69 -12 c 85.88 -8.8 165.16 -15.39 253 -21 c 156.26 -9.99 294.79 -14.83 451 -24 c 32.63 -1.92 96.04 -9.72 94 -8 c -3.32 2.8 -94.67 34.94 -145 51 c -54.2 17.29 -103.62 30.41 -159 46 c -27.35 7.7 -77.61 20.65 -79 21 c -0.14 0.04 5.43 -1.7 8 -3 c 39.89 -20.26 78.02 -38.95 118 -61 c 36.7 -20.24 74.95 -39.35 105 -62 c 13.16 -9.92 26.65 -31.85 33 -42 c 0.8 -1.28 -1.52 -5.65 -3 -6 c -4.85 -1.16 -14.96 -1.3 -22 0 c -33.79 6.22 -68.58 13.4 -103 23 c -36.1 10.07 -106.57 36.13 -105 35 c 2.3 -1.66 96.27 -43.21 148 -66 c 39.32 -17.32 105.47 -45.04 113 -49 c 0.88 -0.46 -9.42 -3.11 -14 -3 c -33.98 0.85 -70.11 1.92 -106 6 c -65.93 7.5 -125.78 17.91 -193 28 c -41.88 6.29 -78.61 12.85 -120 19 c -9.59 1.43 -26.72 3.32 -28 3 c -0.63 -0.16 7.74 -5.34 12 -7 c 22.81 -8.9 45.63 -17.27 70 -25 c 47.2 -14.98 91.67 -26.31 138 -41 c 9.08 -2.88 25.57 -10.31 26 -11 c 0.32 -0.52 -13.83 1.64 -21 3 c -48.93 9.31 -92.52 19 -142 28 c -95.78 17.41 -180.55 32.89 -276 48 c -48.43 7.67 -138.53 17.7 -141 18 c -1.16 0.14 43.87 -8.02 66 -9 c 30.57 -1.35 61.5 -0.77 92 2 c 24.57 2.23 60.94 9.26 73 13 c 1.5 0.46 -0.25 7.05 -2 9 c -10.73 11.97 -27.99 25.99 -41 39 c -1.66 1.66 -4.87 5.45 -4 6 c 3.28 2.08 17.41 7.31 26 8 c 23.36 1.87 48.73 1.39 74 0 c 80.8 -4.43 231.87 -16.7 236 -17 c 0.73 -0.05 -27.66 1.21 -42 3 c -87.25 10.91 -169.71 27.23 -254 34 c -35.23 2.83 -108.86 -4.78 -107 -5 c 7.35 -0.89 275.92 -19.95 422 -33 c 78.81 -7.04 149.67 -18.97 227 -25 c 40.3 -3.14 107.68 -6.78 119 -2 c 4.7 1.98 -17.65 28.48 -29 40 c -32.69 33.18 -103.13 94.36 -105 96 c -1.17 1.03 42.12 -40.04 65 -61 c 56.15 -51.45 108.18 -95.6 162 -147 c 22.11 -21.12 58.46 -62.09 61 -66 c 0.72 -1.12 -16.84 4.67 -24 9 c -47.47 28.71 -95.78 59.67 -143 92 c -14.79 10.13 -28.18 22.96 -41 34 c -0.87 0.75 -2.23 3.08 -2 3 c 2.51 -0.81 24.2 -8.28 36 -14 c 65.3 -31.64 157.87 -73.49 191 -96 c 4.46 -3.03 -6 -28.73 -10 -27 c -25.03 10.82 -147.91 94.22 -152 97 c -0.43 0.29 12.3 -3.29 18 -6 c 21.64 -10.29 42.49 -20.96 64 -33 c 21.31 -11.93 42.24 -24.15 61 -37 c 4.65 -3.19 11.64 -12.82 12 -13 c 0.24 -0.12 -3.6 6.94 -6 10 c -11.97 15.31 -24.38 29.19 -37 45 c -17.59 22.04 -35.59 41.79 -50 64 c -9.84 15.16 -18.26 35.03 -24 50 c -1.04 2.71 0.11 8.05 1 10 c 0.36 0.8 2.79 1.21 4 1 c 9.33 -1.6 21.11 -3.45 31 -7 c 24.28 -8.72 64.57 -28.45 72 -30 c 1.6 -0.33 -2.26 11.47 -5 16 c -9.99 16.48 -24.98 33.39 -35 50 c -3.11 5.16 -8.26 17.31 -6 18 c 5.4 1.66 29.9 -2.94 45 -6 c 36.88 -7.47 72.49 -14.28 108 -25 c 32.24 -9.74 75.96 -23.91 94 -36 c 4.84 -3.24 3.14 -25.78 0 -27 c -4.01 -1.55 -20.37 9.58 -31 15 c -24.03 12.26 -46.55 22.44 -69 36 c -26.16 15.81 -52.1 32.55 -75 51 c -12.33 9.93 -28.66 29.95 -33 36 c -0.52 0.72 3.48 3.24 5 3 c 12.32 -1.93 30.43 -6.65 46 -11 c 16.24 -4.54 31.46 -9.13 47 -15 c 12.12 -4.58 24.38 -10.55 35 -16 c 1.56 -0.8 4.49 -3.78 4 -4 c -1.3 -0.59 -9.85 -0.93 -15 -1 c -19.53 -0.27 -37.49 0.45 -57 0 c -9.95 -0.23 -24.15 0.17 -29 -2 c -1.83 -0.82 -1.3 -8.02 0 -11 c 7.11 -16.25 20.03 -36.23 28 -53 c 1.07 -2.26 2.12 -7.22 1 -8 c -1.95 -1.35 -10.31 -2.54 -14 -1 c -13.89 5.79 -32.05 15.74 -46 26 c -20.96 15.42 -41.56 34.34 -60 52 c -4.51 4.32 -12.36 15.59 -11 16 c 2.28 0.68 21.22 -5.41 31 -10 c 33.45 -15.69 68.22 -31.98 99 -51 c 16.28 -10.06 37 -27.26 45 -38 c 2.37 -3.18 -0.68 -14.36 -4 -17 c -7.17 -5.7 -23.57 -13.08 -35 -14 c -30.65 -2.48 -66.32 0.93 -101 3 c -40.3 2.4 -76.71 7.83 -117 10 c -49.09 2.64 -93.39 3.04 -143 4 c -21.85 0.42 -56.19 1.08 -63 0 c -1.17 -0.18 3.41 -6.86 6 -9 c 11.82 -9.77 26 -20.07 40 -29 c 12.94 -8.25 40.75 -22.28 40 -22 c -1.7 0.65 -61.81 30.11 -95 43 c -82.97 32.21 -160.89 57.84 -245 89 c -11.57 4.29 -32.23 14.66 -33 14 c -0.71 -0.61 26.65 -20.26 26 -20 c -2.05 0.81 -59.99 30.81 -92 46 c -22.43 10.65 -43 19.42 -66 29 c -22.64 9.43 -61.94 24.83 -66 26 c -0.65 0.19 4.11 -6.93 7 -9 c 15.98 -11.45 34.38 -22.49 53 -34 c 60.64 -37.5 170.51 -103.82 175 -107 c 1.01 -0.72 -29.46 8.28 -44 14 c -25.09 9.87 -50.28 19.87 -73 32 c -10.78 5.75 -30 21.6 -30 23 c 0 1.17 20.05 -6.02 30 -10 c 13.8 -5.52 28.62 -10.59 40 -18 c 8.44 -5.49 18.2 -16.67 23 -23 c 0.9 -1.18 0.16 -5.25 -1 -6 c -3.2 -2.07 -10.6 -4.43 -16 -5 c -31.68 -3.33 -64.14 -5.21 -98 -7 c -24.83 -1.31 -47.24 -0.72 -72 -2 c -21.73 -1.13 -54.95 -2.13 -63 -5 c -2.11 -0.75 3.29 -12.06 7 -15 c 14.79 -11.74 36.59 -25.3 56 -35 c 18.88 -9.44 39.75 -15.79 60 -23 c 4.2 -1.5 13.26 -3.14 13 -3 c -0.94 0.52 -28.86 15.41 -44 20 c -28.27 8.57 -57.55 13.91 -88 20 c -29.79 5.96 -65.42 17.08 -87 15 c -9.16 -0.88 -28.34 -23.09 -27 -26 c 1.4 -3.02 26.47 -1.62 39 0 c 15.19 1.97 31.98 6.33 46 11 c 4.93 1.64 12.46 5.77 14 9 c 1.33 2.78 -0.65 10.52 -3 14 c -6.97 10.35 -17.94 22.12 -28 32 c -8.58 8.42 -18.7 14.82 -28 23 c -7.8 6.87 -23.01 21 -22 21 c 1.56 0 27.3 -14.17 42 -21 c 29.15 -13.54 55.42 -25.03 85 -38 c 9.97 -4.37 23.44 -10.57 29 -12 c 0.79 -0.2 2.55 3.14 2 4 c -7.73 12.14 -23.79 33.82 -37 51 c -14.31 18.61 -29.74 34.51 -43 53 c -8.8 12.27 -19.41 30.04 -23 39 c -0.62 1.55 3.12 6.03 5 6 c 15.97 -0.22 44.66 -1.81 66 -7 c 72.88 -17.71 143.14 -39.13 218 -62 c 65.39 -19.97 131.33 -37.99 188 -62 c 17.52 -7.43 38.26 -26.23 48 -38 c 3.18 -3.85 2.28 -15.21 0 -20 c -3.14 -6.61 -11.88 -16.39 -19 -20 c -11.76 -5.98 -29.96 -11.66 -44 -12 c -24.78 -0.6 -54.84 2.26 -80 9 c -42.91 11.5 -90.28 27.44 -129 47 c -24.54 12.39 -50.85 34.63 -69 53 c -7.37 7.46 -13.95 23.24 -15 32 c -0.6 4.99 4.47 17.01 9 18 c 19.6 4.29 58.11 4.8 87 3 c 46.14 -2.87 93.21 -6.39 138 -17 c 81.42 -19.28 164.39 -44.54 242 -73 c 30.78 -11.28 65.42 -31.58 88 -48 c 5.95 -4.32 13.01 -18.98 11 -24 c -3.08 -7.7 -20.15 -22.46 -31 -26 c -18.05 -5.89 -45.93 -8.72 -67 -6 c -50.68 6.53 -111.01 16.93 -158 35 c -35.12 13.51 -72.14 41.41 -102 65 c -14.04 11.09 -29.86 30.42 -36 44 c -3.15 6.96 -1.27 23.63 3 29 c 5.18 6.51 21.45 14.17 32 15 c 39.71 3.13 89.83 3.86 133 -2 c 63.48 -8.62 131.71 -23.77 191 -42 c 22.94 -7.05 51 -25.75 66 -37 c 2.8 -2.1 4.33 -12.2 2 -14 c -9.27 -7.19 -33.89 -21.47 -51 -24 c -52.28 -7.74 -115.8 -11.72 -172 -9 c -52.2 2.53 -108.98 10.12 -158 25 c -52.11 15.82 -115.41 41.61 -155 70 c -21.37 15.32 -42.86 55.76 -50 77 c -2.76 8.2 5.56 33.08 13 33 c 135.64 -1.44 492.71 -27.17 645 -40 c 4.01 -0.34 9.37 -11.83 8 -15 c -2.62 -6.07 -15.1 -19.3 -24 -22 c -29.94 -9.07 -73.69 -18.69 -108 -18 c -44.46 0.9 -96.67 10.43 -140 23 c -30.87 8.95 -94.83 43.8 -91 44 c 11.44 0.6 214.36 -16.88 300 -33 c 14.36 -2.7 31.73 -21.12 40 -31 c 2.95 -3.52 3.99 -15.77 1 -18 c -8.44 -6.29 -32.22 -15.1 -48 -17 c -28.81 -3.47 -62.52 -3.28 -93 0 c -43.33 4.66 -87.76 13.39 -130 24 c -22.25 5.59 -44.17 15.66 -65 25 c -7.8 3.5 -23.03 12.5 -22 14 c 1.31 1.9 22.51 3.65 33 2 c 53.07 -8.35 108.84 -19.44 164 -33 c 45.8 -11.26 90.7 -23.57 133 -40 c 25.35 -9.84 51.58 -25.88 73 -40 c 6.03 -3.97 12.35 -13.3 15 -18 c 0.61 -1.08 -0.8 -4.73 -2 -5 c -8.54 -1.92 -25.52 -4.55 -38 -4 c -31.84 1.42 -65.72 3.82 -97 10 c -25.26 4.99 -50.39 14.98 -75 24 c -9.09 3.33 -18 8.59 -26 13 c -1.17 0.64 -3.44 2.73 -3 3 c 1.73 1.07 10.75 4.67 16 5 c 15.04 0.94 32.68 1.75 48 -1 c 31.97 -5.73 67.79 -13.44 97 -25 c 18.11 -7.17 39.99 -22.84 52 -34 c 3.57 -3.31 4.34 -13.03 4 -18 c -0.23 -3.38 -3.08 -9.43 -6 -11 c -8.55 -4.59 -23.5 -9.49 -35 -11 c -15.36 -2.01 -33.47 -2.5 -49 0 c -24.6 3.97 -54.12 9.92 -75 20 c -14.68 7.09 -29.16 24.16 -41 36 c -2.43 2.43 -6.26 9.43 -5 10 c 3.03 1.38 18.61 1.92 27 0 c 33.63 -7.7 71.04 -17.28 104 -30 c 23.16 -8.94 48.88 -23.02 67 -36 c 6.21 -4.45 12.28 -15.45 14 -22 c 1.09 -4.14 -0.83 -13.06 -4 -16 c -8.27 -7.67 -24.89 -19.6 -37 -22 c -18.01 -3.57 -43.81 -1.77 -64 2 c -28.33 5.29 -58.8 15.24 -86 26 c -16.68 6.6 -34.64 16.15 -48 27 c -13.58 11.03 -28.92 29.88 -37 42 c -1.74 2.61 -0.77 10.23 1 12 c 2.1 2.1 9.76 3.78 14 3 c 33.73 -6.21 74.02 -15.1 111 -26 c 42.26 -12.46 82.92 -26.1 123 -43 c 30.54 -12.88 89 -43.44 88 -46 c -1.01 -2.57 -66.74 11.77 -97 23 c -32.99 12.24 -68.07 30.49 -97 49 c -14.5 9.27 -28.48 25.97 -39 38 c -2.02 2.31 -4.45 8.81 -3 10 c 3.81 3.15 17.42 8.31 26 9 c 26.82 2.16 57.02 2.15 86 0 c 62.03 -4.61 123.34 -8.38 183 -20 c 52.71 -10.26 119.07 -32.01 156 -46 c 3.59 -1.36 5.33 -11.72 5 -15 c -0.18 -1.78 -4.62 -4.98 -7 -5 c -25.7 -0.26 -62.33 -0.12 -93 4 c -41.36 5.55 -83.31 13.05 -123 25 c -42.87 12.91 -86.4 30.2 -126 50 c -27.38 13.69 -55.56 35.51 -78 52 c -2.46 1.81 -6.07 7.85 -5 9 c 2.07 2.22 12.68 5.58 19 6 c 32.07 2.14 66.43 2.52 101 2 c 34.26 -0.51 66.16 -1.91 100 -5 c 25.62 -2.34 50.03 -6.66 75 -11 c 5.84 -1.02 16.51 -4.73 17 -5 c 0.22 -0.12 -5.41 -0.45 -8 0 c -16.48 2.84 -33.43 5.34 -50 10 c -37.52 10.55 -73.42 21.14 -110 35 c -43.15 16.34 -87.02 34.05 -125 54 c -12.26 6.44 -25.42 20.73 -33 29 c -1.21 1.32 -1.21 6.89 0 7 c 10.87 1.03 41.39 0.24 63 -1 c 56.06 -3.22 107.31 -5.83 163 -12 c 74.3 -8.23 172.99 -18.07 216 -30 c 6.16 -1.71 2.9 -20.56 4 -31 c 0.25 -2.34 0.74 -5.53 0 -7 c -0.61 -1.23 -3.3 -2.83 -5 -3 c -9.92 -1.02 -23.13 -2.65 -34 -1 c -32.03 4.85 -67.12 11.01 -98 21 c -23.57 7.62 -48.04 20.55 -69 33 c -9.9 5.88 -27.92 21.23 -27 24 c 0.9 2.69 23.63 1.66 35 0 c 33.78 -4.93 70.83 -8.98 102 -20 c 32.46 -11.48 80.15 -31.01 96 -50 c 9.52 -11.4 0.94 -48.99 0 -65 c -0.07 -1.23 -2.64 -3 -4 -3 c -13.61 0 -34.2 -0.59 -50 3 c -34.32 7.8 -69.68 19.4 -104 32 c -25.26 9.28 -51.58 19.64 -73 33 c -15.9 9.92 -33.62 27.59 -44 40 c -2.64 3.16 -3.61 12.9 -2 15 c 1.61 2.1 10.38 2.83 15 2 c 30.06 -5.42 65.97 -11.12 96 -22 c 33.96 -12.3 71.59 -30.13 100 -49 c 14.28 -9.48 31.37 -28.32 37 -42 c 4.33 -10.52 2.2 -31.38 -2 -43 c -4.77 -13.19 -16.81 -30.07 -28 -40 c -16.59 -14.73 -40.41 -31.64 -61 -39 c -22.69 -8.1 -53.24 -11.13 -79 -11 c -37.01 0.19 -78.96 3.57 -114 12 c -24.49 5.89 -51.04 20.39 -73 33 c -10.29 5.91 -19.96 16.7 -28 25 c -1.92 1.98 -4.59 8.08 -4 8 c 1.36 -0.19 12.87 -5.9 18 -10 c 7.75 -6.2 18.35 -14.7 22 -22 c 2.58 -5.17 2.91 -16.89 0 -22 c -6.46 -11.35 -20.41 -30.1 -33 -36 c -24.7 -11.57 -63.02 -21.57 -93 -23 c -43.35 -2.06 -91.43 5.69 -138 12 c -46.16 6.26 -91.44 12.77 -135 25 c -42.48 11.93 -90.16 29.88 -125 48 c -10.16 5.28 -19.47 21.93 -25 30 c -0.72 1.05 -0.01 4.68 1 5 c 4.17 1.33 14.2 2.64 21 2 c 28.01 -2.62 57.61 -6.17 86 -12 c 22.14 -4.55 44.6 -11.19 65 -19 c 10.13 -3.88 30.76 -16.34 29 -17 c -3.61 -1.35 -46.09 -1 -69 2 c -64.28 8.41 -128.18 17.5 -191 32 c -41.34 9.54 -83.27 23.99 -121 40 c -17.98 7.63 -35.7 22.61 -51 33 c -0.91 0.62 -2.3 3.03 -2 3 c 1.9 -0.19 14.61 -2.85 22 -5 c 21.97 -6.39 43.72 -11.4 64 -20 c 20.98 -8.89 42.39 -20.25 61 -33 c 16.74 -11.47 37.2 -29.07 47 -41 c 2.36 -2.88 1.13 -11.86 -1 -15 c -3.14 -4.63 -11.62 -10.99 -18 -13 c -16.96 -5.35 -38.66 -9.17 -58 -11 c -19 -1.8 -38.79 -1.66 -58 0 c -23.14 2 -46.47 5.76 -69 11 c -16.01 3.73 -32.31 10.29 -47 16 c -2.55 0.99 -7.51 4.96 -7 5 c 2.09 0.15 24.4 0.28 35 -3 c 24.49 -7.57 52.12 -18.27 75 -31 c 20.35 -11.32 61.11 -43.08 58 -43 c -7.95 0.2 -119.9 31.76 -179 46 c -5.13 1.24 -16.36 0.92 -16 1 c 1.42 0.3 45.12 13.09 63 9 c 34.35 -7.85 109.31 -43.19 112 -49 c 1.92 -4.14 -58.27 -5.4 -87 -5 c -18.61 0.26 -36.8 4.2 -56 7 c -11.41 1.67 -31.02 6 -33 6 c -0.54 0 4.41 -5.19 7 -6 c 10.91 -3.39 37.68 -12.73 38 -8 c 0.95 14.27 -37.68 99.64 -31 113 c 4.68 9.35 53.02 -8.15 81 -13 c 15.99 -2.77 30.79 -5.2 46 -9 c 8.93 -2.23 26.45 -9.18 26 -9 c -2.15 0.84 -103.8 33.63 -123 47 c -4.8 3.34 4.56 30.5 11 31 c 26.12 2.01 86.08 -13.73 132 -20 c 63.44 -8.66 174.52 -22.05 183 -23 c 0.27 -0.03 -3.21 2.3 -5 3 c -20.99 8.21 -41.81 16.79 -64 24 c -30.42 9.88 -58.82 16.61 -90 26 c -33.48 10.08 -63.24 18.94 -96 30 c -22.26 7.51 -44.04 15.34 -64 24 c -4.38 1.9 -10.96 7.06 -12 9 c -0.45 0.83 3.18 3.71 5 4 c 23.52 3.78 54.24 8.55 82 10 c 36.63 1.92 71.38 1.05 109 0 c 73.58 -2.06 139.24 -5.31 213 -9 c 23.24 -1.16 67.94 -6.53 67 -5 c -1.18 1.91 -52.1 17.27 -80 26 c -28.76 9 -54.71 18.78 -83 25 c -32.68 7.18 -97.25 14.84 -99 15 c -1.36 0.12 50.47 -9.65 77 -13 c 41.3 -5.22 79.29 -8.42 121 -12 c 14.42 -1.24 42.68 -2.27 42 -2 c -1.19 0.48 -48.44 7.69 -72 14 c -18.8 5.03 -56.17 19.92 -55 20 c 2.03 0.14 66.96 -9.68 100 -17 c 16.79 -3.72 34.01 -9.17 49 -16 c 10.49 -4.78 22.03 -13.48 30 -20 c 1.68 -1.38 3.77 -5.53 3 -7 c -2 -3.81 -8.57 -12.02 -14 -14 c -27.29 -9.92 -63.95 -21.88 -96 -26 c -49.34 -6.34 -102.11 -7.2 -153 -6 c -33.81 0.8 -68.86 5.49 -101 12 c -15.9 3.22 -45.51 17.18 -47 18 c -0.48 0.26 11.76 1.09 16 -1 c 15.91 -7.84 36.32 -20.22 51 -32 c 7.8 -6.27 15.15 -16.77 20 -25 c 2.17 -3.68 3.75 -10.56 3 -14 c -0.63 -2.89 -4.94 -7.98 -8 -9 c -7.16 -2.39 -18.65 -2.85 -28 -3 c -11.97 -0.19 -25.39 -1.17 -36 2 c -16.59 4.96 -37.7 13.36 -51 24 c -16.08 12.86 -32.61 34.5 -44 52 c -5.44 8.37 -9.2 22.58 -10 31 c -0.31 3.24 3.31 10.4 6 11 c 6.46 1.44 20.55 -0.53 30 -3 c 19.24 -5.03 41.33 -10.18 58 -20 c 29.88 -17.6 63.01 -41.54 88 -66 c 20.94 -20.5 43.88 -51.13 55 -74 c 4.47 -9.18 1.9 -28.67 -1 -37 c -1.37 -3.94 -10.29 -9.26 -15 -9 c -21.08 1.15 -54.51 4.62 -77 14 c -36.57 15.25 -76.67 40.11 -110 64 c -20.55 14.74 -41.72 35.6 -56 55 c -10.1 13.73 -20.79 37 -22 51 c -0.73 8.45 7.59 25.8 15 30 c 15.49 8.77 45.65 14.92 68 17 c 29.67 2.76 62.1 0.83 93 -2 c 27.63 -2.53 57.06 -6.48 82 -14 c 15.03 -4.53 35.49 -16.88 44 -24 c 2.04 -1.71 0.99 -9.53 -1 -12 c -6.09 -7.56 -17.95 -19.71 -28 -24 c -17.05 -7.28 -41.44 -12.67 -61 -14 c -17.91 -1.21 -40.15 1.84 -57 6 c -8.17 2.02 -17.45 9.03 -24 14 c -2.23 1.69 -4.67 6.35 -5 8 c -0.13 0.63 2.05 2.12 3 2 c 10.13 -1.24 26.08 -3.17 38 -7 c 14.5 -4.65 29.73 -11.24 43 -19 c 15.99 -9.34 32.75 -21.29 46 -33 c 5.72 -5.05 11.51 -14.4 14 -20 c 0.74 -1.67 -0.67 -6 -2 -7 c -1.86 -1.4 -6.96 -2.4 -10 -2 c -8.61 1.13 -19.41 3.46 -28 7 c -11.85 4.89 -23.81 12.19 -35 19 c -3.99 2.43 -11.26 9.12 -11 9 c 0.98 -0.46 31.2 -16.52 47 -26 c 20.24 -12.14 39.55 -23.58 58 -37 c 10.82 -7.87 23.19 -18.66 30 -27 c 1.86 -2.28 1.68 -8.61 1 -11 c -0.36 -1.26 -3.38 -3 -5 -3 c -7.83 0 -20.1 -0.18 -28 3 c -14.34 5.77 -30.46 16.27 -44 26 c -9.75 7 -20.12 16.45 -27 25 c -3.19 3.97 -7.32 13.84 -6 16 c 1.32 2.16 11.89 3.18 17 2 c 35.04 -8.09 76.38 -18.6 113 -32 c 31.67 -11.59 65.24 -26.51 92 -43 c 12.49 -7.69 25.05 -22.71 33 -34 c 3.46 -4.91 6.01 -15.08 5 -20 c -0.91 -4.4 -7.41 -13.92 -12 -14 c -54.8 -0.94 -148.45 4.06 -220 10 c -15.13 1.26 -32.06 7.06 -45 12 c -3.74 1.43 -10 7.46 -10 9 c 0 1.19 6.78 3 10 3 c 11.14 0 24 -1.04 36 -3 c 23.07 -3.77 46.48 -7.41 68 -14 c 14.7 -4.5 44.81 -19.67 43 -20 c -3.99 -0.72 -70.75 2.94 -104 9 c -22.16 4.04 -44.46 13.51 -66 22 c -11.5 4.53 -24.18 10.05 -33 17 c -7.27 5.74 -16.89 18.01 -19 24 c -0.84 2.39 4.08 9.49 7 10 c 11.97 2.1 33.29 1.34 50 0 c 25.28 -2.02 50.3 -4.39 75 -10 c 49.1 -11.16 97.12 -24.97 145 -40 c 14.96 -4.7 32.96 -13.52 43 -19 c 1.09 -0.59 1.75 -4.87 1 -5 c -3.51 -0.61 -16.37 -0.69 -24 1 c -29.28 6.48 -60.37 13.78 -89 24 c -22.36 7.99 -45.04 20 -65 31 c -4.9 2.7 -13.47 10.49 -13 12 c 0.45 1.46 11.5 1.73 17 1 c 36.29 -4.82 73.62 -10.15 111 -18 c 37.09 -7.79 72.82 -16.34 108 -28 c 25.14 -8.33 71.39 -31.21 73 -32 c 0.29 -0.14 -9.48 1.47 -14 3 c -16.2 5.49 -31.69 11.26 -48 18 c -29.49 12.19 -56.68 22.98 -85 37 c -42.64 21.12 -85.83 41.59 -123 66 c -17.14 11.25 -36.2 31.93 -46 45 c -2.29 3.05 -1.35 12.85 1 15 c 3.57 3.26 14.63 5.41 22 6 c 29.41 2.34 60.32 3.92 91 3 c 36.86 -1.11 72.9 -2.9 109 -9 c 59.18 -10 119.58 -22.86 175 -39 c 19.08 -5.56 42.96 -18.66 55 -28 c 3.37 -2.61 4.27 -12.61 3 -17 c -1.86 -6.43 -7.99 -16.96 -14 -21 c -13 -8.73 -33.38 -18.29 -50 -22 c -21.65 -4.83 -48.47 -7.3 -71 -5 c -34.02 3.48 -75.83 9.55 -105 23 c -26.07 12.02 -55.51 40.28 -75 60 c -5.39 5.46 -9.48 18.95 -9 25 c 0.32 4.03 7.41 11.85 12 13 c 15.61 3.9 40.38 5.9 60 5 c 30.24 -1.39 61.98 -5.16 92 -12 c 41.56 -9.47 85.01 -21.94 123 -37 c 16.24 -6.44 34 -19.27 46 -30 c 5.18 -4.63 11.51 -15.64 11 -21 c -0.56 -5.84 -8.71 -17.68 -15 -21 c -13.96 -7.38 -36.84 -13.49 -55 -16 c -21.56 -2.98 -46.2 -3.56 -68 -1 c -25.35 2.97 -55.35 8.56 -77 18 c -14.2 6.19 -29.87 20.95 -40 33 c -7.86 9.35 -15.1 25.64 -18 36 c -1.05 3.75 1.23 11.82 4 14 c 4.81 3.78 16.17 7.16 24 8 c 12.7 1.37 27.5 0.81 41 -1 c 28.8 -3.86 59.54 -8.17 86 -16 c 13.4 -3.97 28.25 -13.38 39 -21 c 3.84 -2.72 7.88 -8.78 9 -13 c 1.21 -4.54 1.07 -13.27 -1 -17 c -2.09 -3.77 -9.37 -8.18 -14 -10 c -3.77 -1.48 -9.35 -1.21 -14 -1 c -10.31 0.46 -22.49 0.16 -31 3 c -5.85 1.95 -12.88 8.31 -17 13 c -2.51 2.85 -4.67 8.5 -5 12 c -0.24 2.55 1.12 7.4 3 9 c 3.72 3.16 11.3 7.16 17 8 c 17.63 2.59 38.83 3.88 58 3 c 23.95 -1.11 49.37 -4.25 72 -9 c 9.5 -2 20.51 -7.89 28 -12 c 1.43 -0.79 2.85 -3.62 3 -5 c 0.12 -1.06 -0.97 -3.73 -2 -4 c -4.84 -1.26 -14.1 -2.24 -21 -2 c -12.18 0.42 -25.96 0.4 -37 4 c -17.12 5.58 -37.08 15.12 -52 25 c -9.33 6.18 -19.45 17.05 -25 26 c -3.81 6.14 -6.95 18.15 -6 24 c 0.68 4.19 7.39 11.56 12 13 c 13.67 4.27 34.52 6.16 52 7 c 24.32 1.17 49.54 2.33 73 -1 c 29.46 -4.18 60.59 -12.91 89 -22 c 12.47 -3.99 26.01 -11.34 36 -18 c 3.72 -2.48 8.17 -8.25 9 -12 c 0.85 -3.83 -0.2 -12.37 -3 -15 c -6.23 -5.86 -19.92 -13.22 -30 -16 c -13.71 -3.79 -31.23 -5.87 -46 -5 c -23.62 1.39 -51.95 5.12 -73 12 c -10.82 3.54 -22.06 14.55 -31 22 c -2.22 1.85 -4.57 5.55 -5 8 c -0.42 2.39 0.36 7.46 2 9 c 2.72 2.55 9.3 5.41 14 6 c 17.9 2.24 38.72 3.82 58 3 c 27.71 -1.18 56.45 -3.99 83 -9 c 13.18 -2.48 27.71 -8.71 39 -14 c 3.08 -1.44 6.38 -5.3 8 -8 c 1.01 -1.69 1 -4.83 1 -7 c 0 -1.27 -0.15 -3.55 -1 -4 c -3 -1.6 -9.36 -3.74 -14 -4 c -18.47 -1.03 -39.17 -2.06 -58 0 c -20.25 2.21 -41.66 7.28 -61 13 c -9.29 2.75 -18.74 8.18 -27 13 c -3.32 1.94 -9.71 6.76 -9 8 c 1.06 1.86 11.39 5.51 17 6 c 15.86 1.4 33.84 1.23 51 0 c 29.8 -2.14 61.29 -3 88 -10 c 19.15 -5.02 42.12 -18.55 57 -28 c 3.14 -2 5.71 -8.49 6 -12 c 0.28 -3.31 -1.54 -9.85 -4 -12 c -4.26 -3.73 -13.61 -8.63 -20 -9 c -14.64 -0.84 -33.69 1.77 -50 5 c -20.55 4.07 -42.35 9.13 -61 17 c -16.52 6.97 -35.37 18.14 -48 29 c -6.88 5.91 -13.74 17.77 -16 26 c -1.86 6.76 -2.17 20.75 2 25 c 8.62 8.8 30.39 19.68 46 24 c 25.53 7.07 56.02 11.09 84 12 c 43.56 1.41 90.41 1.53 132 -5 c 30.17 -4.74 63.38 -18.51 91 -30 c 8.01 -3.33 17.54 -11.73 22 -17 c 1.44 -1.71 1.23 -7.15 0 -9 c -2.05 -3.08 -7.75 -7.84 -12 -9 c -12.3 -3.36 -28.8 -6 -43 -6 c -29.51 0 -61.63 0.57 -90 6 c -23.97 4.59 -50.28 15.32 -72 25 c -7.3 3.25 -18.65 13.31 -20 16 c -0.57 1.13 6.96 4.26 10 4 c 10.41 -0.9 24.29 -4.16 36 -8 c 26.14 -8.56 51.48 -17.76 77 -29 c 31.49 -13.87 62.25 -28.38 91 -45 c 13.31 -7.7 28.69 -19.27 37 -29 c 3.43 -4.02 4 -13.48 4 -19 c 0 -3.06 -1.98 -8.81 -4 -10 c -2.44 -1.43 -9.17 -1.09 -13 0 c -9.24 2.64 -19.47 7.29 -29 12 c -17.93 8.86 -35.17 17.58 -52 28 c -14.08 8.72 -26.68 18.78 -40 29 c -5.73 4.4 -16.37 14 -16 14 c 0.41 0 12.68 -8.92 19 -14 c 16.36 -13.14 31.06 -25.18 47 -39 c 17.92 -15.54 35.25 -30.01 51 -46 c 6.24 -6.33 14.95 -20 16 -22 c 0.2 -0.37 -3.7 0.16 -5 1 c -11.84 7.71 -27.18 16.56 -38 27 c -16.8 16.2 -34.03 35.72 -47 55 c -10.34 15.37 -18.09 34.42 -25 52 c -3.95 10.05 -7.59 23.53 -8 32 c -0.14 2.78 3.59 8.96 6 9 c 11.52 0.2 34.15 -3.91 51 -8 c 31.6 -7.68 62.28 -16.16 93 -27 c 26.57 -9.38 53.26 -21.26 77 -33 c 5.23 -2.58 12.94 -10.47 14 -12 c 0.29 -0.42 -3.53 -1.26 -5 -1 c -3.64 0.64 -8.08 2.43 -12 4 c -2.78 1.11 -7.79 4.1 -8 4 c -0.18 -0.09 4.24 -3.24 6 -5 l 2 -3"/></svg>