<?xml version="1.0" encoding="UTF-8" standalone="no"?><!DOCTYPE svg PUBLIC "-//W3C//DTD SVG 1.1//EN" "http://www.w3.org/Graphics/SVG/1.1/DTD/svg11.dtd"><svg xmlns="http://www.w3.org/2000/svg" version="1.1" width="862" height="252"><path fill="none" stroke="#000000" stroke-width="2" stroke-linecap="round" stroke-linejoin="round" d="M 111 43 c -0.02 0.84 -1.5 32.44 -1 48 c 0.15 4.64 1.36 10 3 14 c 1.14 2.79 3.77 5.51 6 8 c 3.47 3.87 7.23 7.89 11 11 c 1.63 1.34 4.03 2.63 6 3 c 2.93 0.55 6.98 0.75 10 0 c 7.07 -1.77 14.98 -4.75 22 -8 c 6.58 -3.05 13.45 -6.89 19 -11 c 3.04 -2.25 6.32 -6.01 8 -9 c 0.99 -1.76 1 -4.75 1 -7 c 0 -2.25 -0.18 -4.96 -1 -7 c -1.7 -4.26 -4.95 -8.52 -7 -13 c -1.63 -3.55 -2.98 -7.26 -4 -11 c -0.97 -3.57 -0.65 -7.81 -2 -11 c -2.11 -4.99 -5.83 -9.87 -9 -15 c -1.31 -2.11 -2.55 -4.34 -4 -6 c -0.73 -0.83 -1.97 -1.56 -3 -2 c -1.18 -0.51 -2.75 -1 -4 -1 c -1.85 0 -4.82 0.08 -6 1 c -1.3 1.01 -2.86 4.04 -3 6 c -0.46 6.44 -0.82 15.44 1 22 c 2.89 10.4 9.44 20.95 14 32 c 1.94 4.7 4.33 9.41 5 14 c 0.91 6.17 -0.5 13.35 0 20 c 0.5 6.72 2.47 13.28 3 20 c 0.47 5.98 0.81 12.19 0 18 c -1.48 10.58 -3.88 21.46 -7 32 c -3.94 13.33 -8.8 26.37 -14 39 c -1.74 4.23 -4.38 8.77 -7 12 c -1.36 1.68 -3.91 3.14 -6 4 c -3.31 1.36 -7.27 2.38 -11 3 c -6.26 1.04 -12.84 2.15 -19 2 c -6.84 -0.17 -17.41 -1.12 -21 -3 c -1.35 -0.71 -0.57 -5.52 0 -8 c 1.99 -8.73 4.31 -18.92 8 -27 c 3.01 -6.6 8.27 -13.25 13 -19 c 2.76 -3.36 6.47 -6.22 10 -9 c 2.83 -2.24 5.93 -4.25 9 -6 c 1.53 -0.87 3.54 -2 5 -2 c 1.72 0 4.35 0.98 6 2 c 2.41 1.48 4.96 3.72 7 6 c 9.27 10.36 17.79 21.67 27 32 c 1.72 1.93 3.94 4.12 6 5 c 2.12 0.91 5.57 1.48 8 1 c 11.86 -2.32 27.09 -6.54 38 -10 c 1.18 -0.37 2.31 -1.9 3 -3 c 0.87 -1.39 1.85 -3.35 2 -5 l 0 -17"/><path fill="none" stroke="#000000" stroke-width="2" stroke-linecap="round" stroke-linejoin="round" d="M 245 100 c 0.53 0.09 20.63 2.78 30 5 c 2.76 0.65 5.6 2.4 8 4 c 2.48 1.65 4.81 3.81 7 6 c 3.87 3.87 7.59 7.79 11 12 c 2.27 2.8 4.45 5.9 6 9 c 1.36 2.72 2.73 6.03 3 9 c 0.68 7.51 0.37 15.87 0 24 c -0.31 6.8 -0.52 13.89 -2 20 c -1.06 4.35 -3.72 8.82 -6 13 c -1.72 3.16 -3.72 6.39 -6 9 c -2.24 2.56 -5.14 5.9 -8 7 c -4.91 1.89 -12.04 2.71 -18 3 c -7.51 0.37 -18.9 1.64 -23 -1 c -3.16 -2.03 -4.22 -11.3 -5 -17 c -1.5 -10.96 -1.58 -22.31 -2 -34 c -0.27 -7.55 -1.26 -15.07 0 -22 c 2.61 -14.37 7.55 -29.16 12 -44 c 1.67 -5.56 4.18 -10.43 6 -16 c 3.67 -11.24 6.31 -22.19 10 -33 c 0.96 -2.8 2.19 -5.97 4 -8 c 3.16 -3.55 8.73 -6.37 12 -10 c 2.44 -2.71 3.56 -7.71 6 -10 c 2.34 -2.19 6.84 -3.95 10 -5 c 1.42 -0.47 4.41 -0.94 5 0 c 3.49 5.54 9.51 18.09 12 27 c 1.95 6.96 3.26 16.21 2 23 c -1.81 9.78 -7.23 21.9 -12 31 c -2.13 4.07 -6.24 7.97 -10 11 c -8 6.44 -17.65 11.74 -26 18 c -2.24 1.68 -4.26 3.83 -6 6 c -2.22 2.77 -3.76 6.25 -6 9 c -2.05 2.52 -5.46 4.4 -7 7 c -2.51 4.24 -4.88 10.16 -6 15 c -0.76 3.3 -0.23 7.4 0 11 c 0.1 1.67 0.45 3.54 1 5 c 0.39 1.03 1.17 2.41 2 3 c 1.24 0.89 3.27 1.6 5 2 c 12.51 2.91 25.19 5.78 38 8 c 4.63 0.8 9.29 0.39 14 1 c 5.8 0.75 12.19 2.77 17 3 c 1.25 0.06 3.21 -1 4 -2 l 7 -12"/><path fill="none" stroke="#000000" stroke-width="2" stroke-linecap="round" stroke-linejoin="round" d="M 342 87 c 0.45 0.38 16.81 15.65 26 22 c 8.94 6.17 18.99 11.19 29 16 c 7.47 3.59 15.28 6.99 23 9 c 7.25 1.89 15.68 2.78 23 3 c 3.53 0.1 7.98 -0.64 11 -2 c 3.08 -1.39 6.26 -4.4 9 -7 c 3.91 -3.71 7.93 -7.7 11 -12 c 3.46 -4.85 6.31 -10.44 9 -16 c 2.7 -5.57 4.99 -11.17 7 -17 c 1.69 -4.93 2.83 -9.83 4 -15 c 1.22 -5.42 2.57 -10.66 3 -16 c 0.56 -6.89 1.24 -14.66 0 -21 c -1.27 -6.5 -4.73 -14.49 -8 -20 c -1.61 -2.72 -5.21 -4.68 -8 -7 c -1.31 -1.09 -2.65 -2.66 -4 -3 c -2.16 -0.54 -5.57 -0.37 -8 0 c -1.64 0.25 -3.54 1.12 -5 2 c -1.74 1.05 -3.8 2.44 -5 4 c -1.93 2.5 -4.35 5.99 -5 9 c -1.19 5.57 -0.38 12.61 -1 19 c -0.4 4.09 -1.82 7.97 -2 12 c -0.49 10.93 -0.69 22.25 0 33 c 0.3 4.67 1.69 9.31 3 14 c 2.77 9.94 7.03 19.32 9 29 c 1.63 8 2 16.87 2 25 c 0 4.26 -0.74 9.05 -2 13 c -1.29 4.03 -4.28 7.86 -6 12 c -1.63 3.9 -2.01 8.79 -4 12 c -2 3.23 -5.73 6.77 -9 9 c -3.68 2.51 -8.69 5.16 -13 6 c -6.93 1.35 -19.25 2.72 -23 1 c -1.96 -0.9 -1 -8.01 -1 -12 c 0 -3.99 0.27 -8.17 1 -12 c 0.57 -3.01 1.63 -6.26 3 -9 c 1.88 -3.76 4.59 -7.86 7 -11 c 0.67 -0.87 2 -1.78 3 -2 c 1.67 -0.37 5.04 -1.02 6 0 c 3.17 3.36 6.31 11.68 10 17 c 2.25 3.25 5.38 6.82 8 9 c 0.9 0.75 2.98 1.3 4 1 l 6 -4"/><path fill="none" stroke="#000000" stroke-width="2" stroke-linecap="round" stroke-linejoin="round" d="M 478 173 c 0.19 -0.17 7.83 -6.36 11 -10 c 3.37 -3.87 7.49 -8.8 9 -13 c 1.15 -3.19 0.85 -9.79 0 -12 c -0.36 -0.94 -3.33 -0.85 -5 -1 c -1.96 -0.18 -4.25 -0.53 -6 0 c -4.45 1.33 -9.69 3.73 -14 6 c -1.81 0.95 -4.23 2.38 -5 4 c -1.86 3.92 -3.15 10.09 -4 15 c -0.44 2.53 -0.48 5.61 0 8 c 0.46 2.28 1.81 4.79 3 7 c 1.13 2.09 2.55 4.34 4 6 c 0.73 0.83 1.99 1.82 3 2 c 2.24 0.41 5.6 0.69 8 0 c 10.82 -3.09 23.4 -7.82 34 -12 c 1.47 -0.58 2.87 -1.87 4 -3 c 1.13 -1.13 2.5 -2.62 3 -4 c 0.71 -1.95 0.38 -4.82 1 -7 c 0.67 -2.35 1.79 -4.99 3 -7 c 0.67 -1.12 1.87 -2.43 3 -3 c 2.53 -1.27 7.2 -3.16 9 -3 c 0.85 0.08 1.63 2.64 2 4 c 0.58 2.14 0.86 4.61 1 7 c 0.54 9.46 0.83 26.71 1 28 c 0.03 0.25 1.68 -3.38 2 -5 c 0.3 -1.51 -0.3 -3.43 0 -5 c 0.67 -3.59 1.62 -7.49 3 -11 c 2.27 -5.78 5.04 -12.22 8 -17 c 1.01 -1.63 3.31 -3.06 5 -4 c 1.09 -0.6 3.06 -1.38 4 -1 c 1.78 0.71 4.24 3.24 6 5 c 0.81 0.81 1.68 1.94 2 3 c 0.92 2.99 1.75 6.66 2 10 c 0.41 5.56 0.04 16.54 0 17 c -0.01 0.11 -1.12 -2.82 -1 -4 c 0.18 -1.81 1.19 -4 2 -6 c 3.63 -8.93 7.4 -18.8 11 -26 c 0.46 -0.92 2.27 -2.18 3 -2 c 1.3 0.33 3.82 2.4 5 4 c 3.22 4.37 6.04 9.81 9 15 c 1.14 1.99 2.53 3.99 3 6 c 0.78 3.32 0.55 11.45 1 11 c 0.98 -0.98 8.23 -14.91 10 -22 c 1.32 -5.28 0.49 -12.65 0 -18 l -2 -4"/><path fill="none" stroke="#000000" stroke-width="2" stroke-linecap="round" stroke-linejoin="round" d="M 611 103 l 1 1"/><path fill="none" stroke="#000000" stroke-width="2" stroke-linecap="round" stroke-linejoin="round" d="M 639 158 c 0 -0.33 -0.24 -12.62 0 -19 c 0.1 -2.71 0.31 -5.43 1 -8 c 2.62 -9.68 5.21 -19.59 9 -29 c 5.25 -13.04 11.66 -25.32 18 -38 c 1.42 -2.84 3.11 -5.74 5 -8 c 1.28 -1.54 3.72 -2.46 5 -4 c 1.89 -2.26 5 -8 5 -8"/><path fill="none" stroke="#000000" stroke-width="2" stroke-linecap="round" stroke-linejoin="round" d="M 720 177 c 0 -0.45 -0.41 -17.25 0 -26 c 0.27 -5.76 1.68 -11.24 2 -17 c 0.36 -6.39 -0.49 -12.6 0 -19 c 1.2 -15.59 3.96 -30.4 5 -46 c 0.65 -9.78 -0.28 -19.65 0 -29 c 0.04 -1.33 0.8 -4.28 1 -4 c 1.29 1.85 7.81 16.77 13 24 c 7.27 10.15 16.07 19.44 25 29 c 10.56 11.3 20.57 22.04 32 32 c 12.08 10.52 24.8 19.99 38 29 c 7.91 5.4 23.82 12.28 25 14 c 0.58 0.85 -9.23 1.69 -14 2 c -10.79 0.7 -20.91 0.94 -32 1 c -48.17 0.28 -90.93 0.96 -139 0 c -56.41 -1.12 -106.94 -2.69 -163 -6 c -43.13 -2.55 -81.99 -8.63 -125 -11 c -50.4 -2.78 -97.85 -4.71 -147 -4 c -20.52 0.3 -41.51 3.14 -61 7 c -10.14 2.01 -20.03 6.62 -30 11 c -31.98 14.04 -61.91 27.46 -93 43 c -14.42 7.21 -27.05 15.53 -41 24 l -15 10"/></svg>