<?xml version="1.0" encoding="UTF-8" standalone="no"?><!DOCTYPE svg PUBLIC "-//W3C//DTD SVG 1.1//EN" "http://www.w3.org/Graphics/SVG/1.1/DTD/svg11.dtd"><svg xmlns="http://www.w3.org/2000/svg" version="1.1" width="656" height="129"><path fill="none" stroke="#000000" stroke-width="2" stroke-linecap="round" stroke-linejoin="round" d="M 1 120 c 0.3 -0.44 10.42 -17.54 17 -25 c 13.24 -15 27.55 -30.68 43 -43 c 15.29 -12.2 33.59 -23.39 51 -32 c 12.16 -6.01 26.48 -10.08 40 -13 c 15.55 -3.36 31.77 -4.93 48 -6 c 14.42 -0.95 29.13 -1.22 43 0 c 8.29 0.73 18.04 3.02 25 6 c 3.64 1.56 8.06 5.68 10 9 c 2.23 3.83 3.16 9.97 4 15 c 0.81 4.87 1.48 10.34 1 15 c -0.47 4.51 -1.89 10.06 -4 14 c -2.58 4.82 -6.86 10 -11 14 c -5.63 5.45 -12.33 10.43 -19 15 c -6.05 4.14 -17.35 10.69 -19 11 c -0.64 0.12 1.49 -5.77 3 -8 c 4.53 -6.67 9.89 -14.67 16 -20 c 8.93 -7.79 20.17 -15.73 31 -21 c 13.82 -6.73 29.68 -11.97 45 -16 c 16.3 -4.29 33.7 -7.54 50 -9 c 9.01 -0.81 19.57 0.31 28 2 c 4.03 0.81 9.33 3.71 12 6 c 1.26 1.08 1.74 4.03 2 6 c 0.37 2.8 0.61 6.21 0 9 c -1.63 7.45 -4.56 16.9 -7 23 c -0.37 0.92 -2.91 2.34 -3 2 c -0.24 -0.96 0.14 -6.88 1 -10 c 1.73 -6.28 3.79 -13.7 7 -19 c 3.03 -5 8.24 -10.32 13 -14 c 5.13 -3.97 12.03 -7.89 18 -10 c 4.67 -1.65 11.11 -2.44 16 -2 c 5.37 0.49 12.38 2.25 17 5 c 6.84 4.07 14.93 10.54 20 17 c 7.61 9.71 14.33 22.29 20 34 c 4.6 9.49 8.74 20.33 11 30 c 1.2 5.15 0.83 12.24 0 17 c -0.35 2.02 -2.42 5.47 -4 6 c -2.41 0.8 -8.35 -0.19 -11 -1 c -0.86 -0.27 -1.92 -1.98 -2 -3 c -0.5 -6.24 -1.19 -15.86 0 -22 c 0.58 -3.02 3.53 -7.27 6 -9 c 3.39 -2.38 9.35 -4.3 14 -5 c 8.13 -1.22 17.15 -1.13 26 -1 c 13.97 0.21 27.36 0.43 41 2 c 12.52 1.44 25.69 3.67 37 7 c 4.84 1.42 9.99 5.17 14 8 c 1.24 0.88 2.45 2.62 3 4 c 0.67 1.68 1 4.06 1 6 l -1 9"/></svg>