<?xml version="1.0" encoding="UTF-8" standalone="no"?><!DOCTYPE svg PUBLIC "-//W3C//DTD SVG 1.1//EN" "http://www.w3.org/Graphics/SVG/1.1/DTD/svg11.dtd"><svg xmlns="http://www.w3.org/2000/svg" version="1.1" width="901" height="207"><path fill="none" stroke="#000000" stroke-width="2" stroke-linecap="round" stroke-linejoin="round" d="M 1 196 c 0.09 -0.21 2.34 -9.2 5 -12 c 8.56 -9.02 20.55 -19.83 32 -27 c 15.53 -9.73 33.58 -18.14 51 -25 c 13.69 -5.39 28.35 -8.9 43 -12 c 13.92 -2.95 28.32 -5.42 42 -6 c 9.4 -0.4 19.9 0.6 29 3 c 15.6 4.11 32.26 9.98 47 17 c 12.85 6.12 25.4 14.27 37 23 c 16.8 12.65 31.63 27.85 48 41 c 3.96 3.18 9.69 9.06 13 8 c 10.91 -3.51 27.95 -17.8 43 -26 c 19.42 -10.58 58 -29 58 -29"/><path fill="none" stroke="#000000" stroke-width="2" stroke-linecap="round" stroke-linejoin="round" d="M 465 200 c 1.43 -0.65 53.62 -23.87 82 -37 c 22.72 -10.51 43.44 -19.42 65 -31 c 24.03 -12.91 46.69 -25.88 69 -41 c 19.41 -13.15 38.4 -28.08 55 -43 c 5.61 -5.04 11.86 -12.92 14 -19 c 1.63 -4.64 0.36 -13.35 -1 -18 c -0.64 -2.19 -3.75 -5.06 -6 -6 c -4.88 -2.03 -12.43 -3.83 -18 -4 c -4.32 -0.14 -10.08 1.19 -14 3 c -4.11 1.9 -8.68 5.55 -12 9 c -4.74 4.93 -10.29 11.13 -13 17 c -2.86 6.19 -4.27 14.85 -5 22 c -0.55 5.4 -0.35 12.11 1 17 c 1.1 3.99 4.17 8.73 7 12 c 3.18 3.68 7.6 7.93 12 10 c 11.66 5.49 25.75 11.35 39 14 c 29.36 5.87 60.17 9.49 91 12 c 23.18 1.88 69 1 69 1"/></svg>