<?xml version="1.0" encoding="UTF-8" standalone="no"?><!DOCTYPE svg PUBLIC "-//W3C//DTD SVG 1.1//EN" "http://www.w3.org/Graphics/SVG/1.1/DTD/svg11.dtd"><svg xmlns="http://www.w3.org/2000/svg" version="1.1" width="627" height="162"><path fill="none" stroke="#000000" stroke-width="2" stroke-linecap="round" stroke-linejoin="round" d="M 85 161 c -0.31 -0.19 -12.3 -6.81 -18 -11 c -10.77 -7.91 -21.42 -15.98 -31 -25 c -7.33 -6.9 -14.69 -14.8 -20 -23 c -6 -9.26 -12.54 -21.37 -15 -31 c -1.43 -5.62 -0.22 -14.6 2 -20 c 2.6 -6.34 8.27 -14.95 14 -19 c 11.95 -8.45 29.15 -17.4 44 -22 c 17.12 -5.31 37.31 -7.71 56 -9 c 19.78 -1.36 40.58 -1.36 60 1 c 18.29 2.23 39.86 6.07 55 13 c 10.06 4.6 21.47 16.35 28 25 c 3.63 4.81 5.15 13.55 6 20 c 0.73 5.56 0.96 13.77 -1 18 c -1.7 3.66 -7.77 8.26 -12 10 c -6.05 2.49 -14.58 3.39 -22 4 c -12.94 1.06 -35.75 3.6 -39 1 c -2.1 -1.68 8.44 -15.44 14 -21 c 7.4 -7.4 17.54 -15.34 27 -20 c 11.85 -5.83 26.58 -10.56 40 -13 c 18.9 -3.44 39.04 -4.15 59 -5 c 11.8 -0.5 26.23 -0.35 35 1 c 1.6 0.25 3.87 3.25 4 5 c 0.99 12.88 -0.28 31.13 0 47 c 0.05 3.06 -0.68 7.9 1 9 c 4.87 3.19 16.74 7.44 25 8 c 28.96 1.98 60.6 1.34 92 0 c 40.73 -1.74 78.58 -5.46 119 -9 l 18 -3"/></svg>