<?xml version="1.0" encoding="UTF-8" standalone="no"?><!DOCTYPE svg PUBLIC "-//W3C//DTD SVG 1.1//EN" "http://www.w3.org/Graphics/SVG/1.1/DTD/svg11.dtd"><svg xmlns="http://www.w3.org/2000/svg" version="1.1" width="699" height="147"><path fill="none" stroke="#000000" stroke-width="2" stroke-linecap="round" stroke-linejoin="round" d="M 9 146 c -0.09 -0.1 -3.6 -3.89 -5 -6 c -1.21 -1.81 -3.3 -4.2 -3 -6 c 2.48 -14.9 7.37 -39.58 13 -54 c 1.58 -4.06 7.72 -7.05 12 -10 c 6.4 -4.4 12.99 -8.22 20 -12 c 10.76 -5.79 20.98 -11.25 32 -16 c 8.48 -3.65 17.44 -7.22 26 -9 c 6.85 -1.43 14.41 -0.82 22 -1 c 7.24 -0.17 13.95 -0.24 21 0 c 2.71 0.09 6.1 0.05 8 1 c 1.51 0.76 3.18 3.19 4 5 c 2.02 4.48 4.32 10.02 5 15 c 1.25 9.14 1.47 20.01 1 29 c -0.15 2.94 -1.61 6.37 -3 9 c -1.47 2.78 -3.68 6.71 -6 8 c -2.82 1.57 -7.97 1.77 -12 2 c -7.61 0.44 -15.55 0.73 -23 0 c -5.98 -0.58 -12.87 -2.08 -18 -4 c -2.17 -0.81 -5.26 -3.1 -6 -5 c -1.23 -3.17 -1.53 -9 -1 -13 c 0.73 -5.44 2.08 -12.74 5 -17 c 4.31 -6.29 12.15 -13.63 19 -18 c 7.98 -5.09 18.56 -8.92 28 -12 c 6.62 -2.16 14 -3.3 21 -4 c 6.22 -0.62 12.81 -0.7 19 0 c 8.31 0.94 17.76 1.98 25 5 c 7.8 3.25 17 9.37 23 15 c 3.82 3.58 7.34 10.21 9 15 c 1.04 3.01 0.37 7.47 0 11 c -0.28 2.65 -1.03 5.67 -2 8 c -0.59 1.41 -2.82 4.31 -3 4 c -0.33 -0.55 -0.71 -6.38 0 -9 c 1.14 -4.17 3.51 -9.06 6 -13 c 3.73 -5.88 7.99 -12.69 13 -17 c 6.3 -5.42 14.89 -10.2 23 -14 c 18.23 -8.54 37.08 -17.29 56 -23 c 15.88 -4.79 33.62 -7.63 50 -9 c 10.98 -0.92 23.84 -0.15 34 2 c 6 1.27 12.69 5.4 18 9 c 4.67 3.16 10.29 7.7 13 12 c 2.37 3.77 3.21 10.08 4 15 c 0.51 3.17 0.58 7.28 0 10 c -0.29 1.36 -2.75 4.25 -3 4 c -0.35 -0.35 -0.98 -5.49 0 -7 c 2.08 -3.21 7.03 -7.26 11 -10 c 5.5 -3.79 11.9 -7.69 18 -10 c 5.75 -2.18 12.48 -3.11 19 -4 c 15.86 -2.16 31.03 -4.3 47 -5 c 22.64 -0.99 44.53 -1.06 67 0 c 13.19 0.62 27.41 1.8 39 5 c 6.47 1.79 13.23 6.8 19 11 c 5.02 3.65 10.25 8.28 14 13 c 3.6 4.54 7.41 10.74 9 16 c 1.48 4.88 1.4 11.78 1 17 l -3 9"/></svg>