<?xml version="1.0" encoding="UTF-8" standalone="no"?><!DOCTYPE svg PUBLIC "-//W3C//DTD SVG 1.1//EN" "http://www.w3.org/Graphics/SVG/1.1/DTD/svg11.dtd"><svg xmlns="http://www.w3.org/2000/svg" version="1.1" width="649" height="168"><path fill="none" stroke="#000000" stroke-width="2" stroke-linecap="round" stroke-linejoin="round" d="M 1 85 c 0.16 -0.17 5.53 -7.59 9 -10 c 8.9 -6.16 19.48 -11.56 30 -17 c 18.69 -9.67 35.99 -18.66 55 -27 c 14.24 -6.25 28.25 -11.39 43 -16 c 12.24 -3.83 24.47 -7.23 37 -9 c 20.47 -2.89 41.26 -4.32 62 -5 c 10.03 -0.33 21.04 -0.05 30 2 c 6 1.37 13.93 5.08 18 9 c 3.89 3.75 7.72 11.38 9 17 c 1.8 7.9 1 17.75 1 27 c 0 10.62 0 20.63 -1 31 c -1.02 10.49 -3.8 20.41 -5 31 c -1.18 10.48 -1.55 20.36 -2 31 c -0.23 5.48 -0.63 12.2 0 16 c 0.14 0.86 2.2 2.1 3 2 c 1.3 -0.16 3.6 -1.71 5 -3 c 19.15 -17.63 37.44 -37.26 58 -55 c 21.62 -18.65 42.97 -37.2 66 -52 c 18.26 -11.74 39.58 -22.04 60 -29 c 21.63 -7.38 45.78 -11.57 69 -15 c 17.46 -2.58 34.64 -2.27 53 -3 c 16.26 -0.65 47 -1 47 -1"/></svg>