<?xml version="1.0" encoding="UTF-8" standalone="no"?><!DOCTYPE svg PUBLIC "-//W3C//DTD SVG 1.1//EN" "http://www.w3.org/Graphics/SVG/1.1/DTD/svg11.dtd"><svg xmlns="http://www.w3.org/2000/svg" version="1.1" width="604" height="230"><path fill="none" stroke="#000000" stroke-width="2" stroke-linecap="round" stroke-linejoin="round" d="M 12 229 c -0.16 -0.26 -7.71 -9.95 -9 -15 c -2.07 -8.1 -3.14 -19.29 -2 -28 c 1.72 -13.17 4.85 -29.64 11 -41 c 8.14 -15.05 21.97 -32.27 35 -44 c 12.29 -11.06 29.61 -22.16 45 -28 c 18.68 -7.09 41.6 -10.2 63 -13 c 27.35 -3.58 55.1 -6.2 82 -6 c 17.49 0.13 36.04 3.66 53 7 c 6.13 1.21 14.39 3.91 18 7 c 2.13 1.83 2.65 7.36 3 11 c 0.62 6.38 1.18 13.77 0 20 c -2.03 10.75 -6 22 -10 33 c -5.52 15.17 -12.65 29.63 -18 44 c -0.8 2.14 -1.73 7.17 -1 7 c 2.67 -0.61 15.43 -7.43 23 -12 c 26.89 -16.24 50.6 -33.73 78 -49 c 44.17 -24.61 86.77 -43.84 132 -68 c 25.24 -13.48 48.15 -26.64 72 -41 c 5.76 -3.47 16 -12 16 -12"/></svg>