<?xml version="1.0" encoding="UTF-8" standalone="no"?><!DOCTYPE svg PUBLIC "-//W3C//DTD SVG 1.1//EN" "http://www.w3.org/Graphics/SVG/1.1/DTD/svg11.dtd"><svg xmlns="http://www.w3.org/2000/svg" version="1.1" width="570" height="204"><path fill="none" stroke="#000000" stroke-width="2" stroke-linecap="round" stroke-linejoin="round" d="M 74 133 c -0.03 0.07 -1.95 2.67 -2 4 c -0.55 14.01 -1.2 34.24 0 47 c 0.2 2.12 3.1 4.51 5 6 c 2.5 1.96 5.95 4.11 9 5 c 4.48 1.31 9.95 1.52 15 2 c 2 0.19 4.08 0.27 6 0 c 2.63 -0.38 5.88 -0.73 8 -2 c 4.02 -2.41 8.24 -6.45 12 -10 c 2.22 -2.1 4.25 -4.59 6 -7 c 0.85 -1.17 1.71 -2.7 2 -4 c 0.32 -1.46 -0.32 -3.54 0 -5 c 0.29 -1.3 1.21 -2.72 2 -4 c 1.91 -3.1 3.9 -6.44 6 -9 c 0.7 -0.85 1.95 -1.87 3 -2 c 10.81 -1.35 24.57 -1.57 37 -3 c 5.12 -0.59 10.31 -1.57 15 -3 c 2.74 -0.83 5.56 -2.43 8 -4 c 2.13 -1.37 4.37 -3.19 6 -5 c 1.22 -1.35 2.64 -3.3 3 -5 c 0.86 -4.09 0.79 -9.2 1 -14 c 0.13 -3.08 0.33 -6.03 0 -9 c -0.67 -6.01 -1.04 -12.71 -3 -18 c -2.12 -5.72 -5.89 -12.61 -10 -17 c -4.92 -5.26 -13.54 -9.28 -19 -14 c -1.35 -1.17 -1.62 -4.03 -3 -5 c -4.56 -3.19 -11.18 -6.21 -17 -9 c -2.59 -1.24 -5.57 -1.78 -8 -3 c -1.42 -0.71 -2.56 -2.41 -4 -3 c -3.92 -1.61 -8.78 -3.11 -13 -4 c -1.86 -0.39 -4.24 0.35 -6 0 c -1.31 -0.26 -2.67 -1.93 -4 -2 c -11.03 -0.54 -25.99 -0.77 -37 0 c -2 0.14 -4.07 2.47 -6 3 c -1.44 0.39 -3.52 -0.37 -5 0 c -2.25 0.56 -4.59 2.28 -7 3 c -4.22 1.27 -9.08 1.36 -13 3 c -6.05 2.54 -13.16 6.06 -18 10 c -3.53 2.87 -6.83 7.82 -9 12 c -2.29 4.41 -4.34 10.02 -5 15 c -1.26 9.46 -1.49 20.97 -1 30 c 0.12 2.29 1.46 5.46 3 7 c 2.91 2.91 7.95 7.02 12 8 c 7.02 1.71 16.83 0.44 25 1 l 4 1"/><path fill="none" stroke="#000000" stroke-width="2" stroke-linecap="round" stroke-linejoin="round" d="M 31 85 c 0 -0.26 0.95 -11.02 0 -15 c -0.49 -2.07 -3.15 -5.08 -5 -6 c -2.14 -1.07 -6.25 -1.29 -9 -1 c -3.17 0.33 -7.45 1.73 -10 3 c -0.88 0.44 -1.22 2.22 -2 3 c -0.78 0.78 -2.75 1.13 -3 2 c -0.83 2.89 -1.69 8.9 -1 12 c 0.45 2.01 3.09 4.45 5 6 c 3.19 2.59 8.18 6.69 11 7 l 7 -5"/><path fill="none" stroke="#000000" stroke-width="2" stroke-linecap="round" stroke-linejoin="round" d="M 214 93 c 0.1 -0.09 3.92 -3.68 6 -5 c 1.43 -0.91 3.38 -1.68 5 -2 c 1.51 -0.3 3.62 0.34 5 0 c 1 -0.25 2.05 -1.89 3 -2 c 1.61 -0.18 4.25 0.42 6 1 c 1.04 0.35 2.46 1.2 3 2 c 0.61 0.92 1 2.76 1 4 c 0 1.53 -0.1 4.2 -1 5 c -1.51 1.35 -5.32 2.44 -8 3 c -3.46 0.73 -11 1 -11 1"/><path fill="none" stroke="#000000" stroke-width="2" stroke-linecap="round" stroke-linejoin="round" d="M 90 142 c 0.04 0.05 1.22 2.22 2 3 c 0.78 0.78 1.94 1.7 3 2 c 3.27 0.94 7.32 1.68 11 2 c 3.94 0.34 8.33 0.43 12 0 c 1.65 -0.19 4.39 -2.37 5 -2 c 0.57 0.34 0.72 3.82 0 5 c -3.28 5.38 -9.25 12.45 -14 18 c -1.04 1.22 -2.61 2.57 -4 3 c -2.52 0.77 -6.42 1.2 -9 1 c -1.28 -0.1 -3.09 -1.09 -4 -2 c -1.18 -1.18 -2.66 -3.28 -3 -5 c -1.19 -5.93 -2 -20 -2 -20"/><path fill="none" stroke="#000000" stroke-width="2" stroke-linecap="round" stroke-linejoin="round" d="M 90 145 c 0 0.09 -0.47 3.89 0 5 c 0.34 0.8 2.08 1.87 3 2 c 1.05 0.15 3.38 -1.37 4 -1 c 0.62 0.37 0.41 2.96 1 4 c 0.61 1.07 2.07 3.12 3 3 c 3.06 -0.38 9.47 -4.38 13 -5 c 1.13 -0.2 4.1 1.59 4 2 l -5 2"/><path fill="none" stroke="#000000" stroke-width="2" stroke-linecap="round" stroke-linejoin="round" d="M 90 166 c 0.07 -0.03 2.9 -2 4 -2 c 1.1 0 2.86 2 4 2 c 1.38 0 5 -2 5 -2"/><path fill="none" stroke="#000000" stroke-width="2" stroke-linecap="round" stroke-linejoin="round" d="M 91 65 c -0.3 0 -11.79 -0.47 -17 0 c -1.65 0.15 -3.57 1.09 -5 2 c -2.08 1.32 -4.38 3.11 -6 5 c -2.24 2.61 -5.07 6.07 -6 9 c -0.86 2.71 -0.55 7.07 0 10 c 0.37 1.97 1.72 4.56 3 6 c 1.11 1.25 3.25 2.25 5 3 c 2.84 1.22 6.12 2.73 9 3 c 3.65 0.35 8.23 -0.25 12 -1 c 2.68 -0.54 5.78 -1.57 8 -3 c 3.12 -2.02 6.33 -5.14 9 -8 c 1.91 -2.04 3.83 -4.67 5 -7 c 0.69 -1.38 1 -3.38 1 -5 c 0 -3.51 0.07 -8.33 -1 -11 l -5 -4"/><path fill="none" stroke="#000000" stroke-width="2" stroke-linecap="round" stroke-linejoin="round" d="M 191 93 c -0.09 0 -3.49 0.3 -5 0 c -1.62 -0.32 -3.38 -1.92 -5 -2 c -4.81 -0.23 -12.07 -0.43 -16 1 c -2.26 0.82 -4.24 4.5 -6 7 c -2.23 3.16 -4.84 6.69 -6 10 c -1 2.85 -1.87 7.83 -1 10 c 0.74 1.86 4.67 3.83 7 5 c 1.38 0.69 3.38 1 5 1 c 3.18 0 7.48 0.31 10 -1 c 4.27 -2.23 9.78 -7.18 13 -11 c 1.61 -1.92 2.4 -5.32 3 -8 l 1 -10"/><path fill="none" stroke="#000000" stroke-width="2" stroke-linecap="round" stroke-linejoin="round" d="M 170 108 c -0.02 -0.07 -1.28 -3.17 -1 -4 c 0.24 -0.73 3 -2 3 -2"/><path fill="none" stroke="#000000" stroke-width="2" stroke-linecap="round" stroke-linejoin="round" d="M 83 82 l 1 1"/><path fill="none" stroke="#000000" stroke-width="2" stroke-linecap="round" stroke-linejoin="round" d="M 149 41 c 0.11 -0.4 4.71 -15.47 6 -23 c 0.65 -3.8 0.43 -8.33 0 -12 c -0.19 -1.65 -2 -5 -2 -5"/><path fill="none" stroke="#000000" stroke-width="2" stroke-linecap="round" stroke-linejoin="round" d="M 146 63 c 0 -0.12 0.41 -4.78 0 -7 c -1.21 -6.54 -2.98 -13.49 -5 -20 c -0.97 -3.11 -2.22 -6.62 -4 -9 c -1.92 -2.57 -5.5 -4.5 -8 -7 c -1.84 -1.84 -3.8 -3.84 -5 -6 c -2 -3.6 -5 -12 -5 -12"/><path fill="none" stroke="#000000" stroke-width="2" stroke-linecap="round" stroke-linejoin="round" d="M 165 55 c 0.3 -0.24 11.17 -9.63 17 -14 c 2.14 -1.6 5.1 -2.52 7 -4 c 0.85 -0.66 1.17 -2.27 2 -3 c 1.66 -1.45 3.98 -3.16 6 -4 c 1.7 -0.71 6 -1 6 -1"/><path fill="none" stroke="#000000" stroke-width="2" stroke-linecap="round" stroke-linejoin="round" d="M 110 118 c 0 -0.17 -0.59 -7.44 0 -10 c 0.25 -1.09 1.89 -2.22 3 -3 c 2.12 -1.48 4.94 -3.44 7 -4 c 1.05 -0.29 3.54 0.31 4 1 c 0.56 0.84 -0.78 4.48 0 5 c 1.41 0.94 6.85 0.22 9 1 c 0.86 0.31 1.75 2 2 3 c 0.34 1.38 0.7 4 0 5 c -1.2 1.72 -4.67 3.73 -7 5 l -4 1"/><path fill="none" stroke="#000000" stroke-width="2" stroke-linecap="round" stroke-linejoin="round" d="M 127 112 l 1 1"/><path fill="none" stroke="#000000" stroke-width="2" stroke-linecap="round" stroke-linejoin="round" d="M 117 110 l 1 1"/><path fill="none" stroke="#000000" stroke-width="2" stroke-linecap="round" stroke-linejoin="round" d="M 242 196 c 0.03 -0.93 1.92 -51.8 2 -53 c 0.01 -0.14 0.32 4.2 1 6 c 1.24 3.32 3.07 7.69 5 10 c 0.93 1.11 3.37 1.73 5 2 c 2.12 0.35 4.76 0.3 7 0 c 2.64 -0.35 5.69 -0.8 8 -2 c 6.92 -3.58 14.38 -8.17 21 -13 c 5.7 -4.16 15.7 -13.78 16 -14 c 0.16 -0.12 -5.85 5.03 -8 8 c -4.7 6.49 -9.18 13.68 -13 21 c -4.23 8.1 -6.97 16.71 -11 25 c -2.05 4.21 -7 12 -7 12"/><path fill="none" stroke="#000000" stroke-width="2" stroke-linecap="round" stroke-linejoin="round" d="M 322 175 c -0.1 0.1 -4.18 3.85 -6 6 c -1.84 2.18 -3.53 4.52 -5 7 c -2.9 4.91 -7.75 14.01 -8 15 c -0.09 0.34 5 -3 5 -3"/><path fill="none" stroke="#000000" stroke-width="2" stroke-linecap="round" stroke-linejoin="round" d="M 354 144 c -0.1 -0.02 -4.09 -1 -6 -1 c -1.91 0 -4.71 0.1 -6 1 c -1.53 1.07 -3.35 4.05 -4 6 c -0.54 1.62 -0.33 4.18 0 6 c 0.3 1.63 0.91 4.41 2 5 c 1.83 1 6.58 1.74 9 1 c 4.32 -1.31 10.25 -5.13 14 -8 c 1.36 -1.04 2.51 -3.38 3 -5 c 0.42 -1.39 0.28 -3.45 0 -5 c -0.36 -1.95 -0.96 -4.96 -2 -6 c -0.84 -0.84 -5 -0.89 -5 -1 l 5 0"/><path fill="none" stroke="#000000" stroke-width="2" stroke-linecap="round" stroke-linejoin="round" d="M 412 119 c -0.09 0.21 -3.53 7.81 -5 12 c -5.37 15.3 -10.72 30.73 -15 45 c -0.45 1.5 -0.47 3.89 0 5 l 3 2"/><path fill="none" stroke="#000000" stroke-width="2" stroke-linecap="round" stroke-linejoin="round" d="M 462 174 c -0.03 -0.09 -0.98 -3.98 -2 -5 c -1.28 -1.28 -4.04 -2.85 -6 -3 c -5.85 -0.45 -13.94 -0.17 -20 1 c -3.65 0.71 -7.67 3.04 -11 5 c -2.16 1.27 -5.05 3.1 -6 5 c -1.36 2.72 -2 7.89 -2 11 c 0 1.24 1.13 2.99 2 4 c 0.97 1.13 2.6 2.3 4 3 c 1.78 0.89 4.02 1.79 6 2 c 4.06 0.43 8.87 0.41 13 0 c 2.31 -0.23 4.84 -1.07 7 -2 c 2.39 -1.03 4.93 -2.45 7 -4 c 1.81 -1.36 3.69 -3.2 5 -5 c 1.24 -1.7 2.65 -4.03 3 -6 c 0.57 -3.23 0.8 -9.25 0 -11 l -5 0"/><path fill="none" stroke="#000000" stroke-width="2" stroke-linecap="round" stroke-linejoin="round" d="M 482 191 c 0.04 -0.17 0.97 -6.79 2 -10 c 1.95 -6.08 6.88 -17.68 7 -18 c 0.05 -0.13 -2.25 4.61 -3 7 c -0.91 2.9 -2.48 8.52 -2 9 c 0.4 0.4 3.82 -3.91 6 -5 c 4.78 -2.39 16 -6 16 -6"/><path fill="none" stroke="#000000" stroke-width="2" stroke-linecap="round" stroke-linejoin="round" d="M 519 176 c 0.12 0 4.75 -0.34 7 0 c 4.28 0.64 9.71 1.68 13 3 c 0.89 0.36 1.78 2 2 3 c 0.37 1.67 0.33 4.18 0 6 c -0.3 1.63 -1.11 3.76 -2 5 c -0.59 0.83 -2.01 1.93 -3 2 c -3.02 0.22 -8.1 -0.17 -11 -1 c -1.11 -0.32 -2.68 -1.93 -3 -3 c -0.53 -1.76 -0.35 -4.88 0 -7 c 0.27 -1.63 0.9 -4.3 2 -5 l 9 -2"/><path fill="none" stroke="#000000" stroke-width="2" stroke-linecap="round" stroke-linejoin="round" d="M 537 188 c 0.19 -0.39 8.38 -14.33 11 -22 c 6.97 -20.42 12.75 -41.75 18 -63 c 1.78 -7.2 2.38 -14.59 3 -22 c 0.39 -4.67 0 -14 0 -14"/></svg>