<?xml version="1.0" encoding="UTF-8" standalone="no"?><!DOCTYPE svg PUBLIC "-//W3C//DTD SVG 1.1//EN" "http://www.w3.org/Graphics/SVG/1.1/DTD/svg11.dtd"><svg xmlns="http://www.w3.org/2000/svg" version="1.1" width="821" height="293"><path fill="none" stroke="#000000" stroke-width="2" stroke-linecap="round" stroke-linejoin="round" d="M 1 230 c 0.03 -0.09 0.78 -4.18 2 -5 c 8.04 -5.36 21.3 -11.29 31 -17 c 1.16 -0.68 1.93 -2.39 3 -3 c 1.04 -0.59 2.67 -0.93 4 -1 c 5.16 -0.26 10.87 -0.55 16 0 c 3.97 0.43 8.23 1.47 12 3 c 10.09 4.08 20.53 8.9 30 14 c 3.26 1.76 5.83 4.94 9 7 c 3.49 2.27 7.3 4.65 11 6 c 3.3 1.2 7.34 1.57 11 2 c 1.97 0.23 4.05 0.24 6 0 c 3.32 -0.41 7.29 -0.96 10 -2 c 1.13 -0.43 1.86 -2.26 3 -3 c 4.34 -2.81 9.13 -5.36 14 -8 c 3.38 -1.83 6.61 -3.68 10 -5 c 2.5 -0.97 6.07 -2.18 8 -2 c 0.99 0.09 1.91 2.52 3 3 c 1.56 0.69 4.15 0.45 6 1 c 1.36 0.41 2.67 1.89 4 2 c 5.95 0.5 15.15 1.67 20 0 l 9 -10"/><path fill="none" stroke="#000000" stroke-width="2" stroke-linecap="round" stroke-linejoin="round" d="M 489 292 c -0.05 -0.05 -2.46 -1.92 -3 -3 c -0.65 -1.3 -0.99 -3.33 -1 -5 c -0.32 -82.33 0.92 -166.78 0 -251 c -0.09 -7.78 -1.42 -15.8 -3 -23 c -0.67 -3.06 -3.96 -9.46 -4 -9 c -0.22 2.79 0.82 39.7 0 60 c -0.54 13.26 -2.86 25.5 -4 39 c -0.93 11.04 -0.86 21.12 -2 32 c -1.25 12 -4.52 23.19 -5 35 c -1.2 29.72 0.84 59.7 0 89 c -0.15 5.36 -1.25 11.91 -3 16 c -0.84 1.96 -3.94 4.46 -6 5 c -3.43 0.9 -9.08 0.92 -13 0 c -6.77 -1.59 -14.06 -4.86 -21 -8 c -11.05 -5 -21.23 -10.14 -32 -16 c -12.55 -6.83 -23.57 -14.58 -36 -21 c -8.42 -4.35 -17.8 -6.54 -26 -11 c -10.72 -5.83 -20.72 -13.05 -31 -20 c -2.18 -1.47 -6.54 -4.97 -6 -5 c 2.77 -0.16 26.32 2.87 40 3 c 58.31 0.55 113.5 1.67 171 -1 c 29.49 -1.37 57.01 -6.46 87 -11 c 56.83 -8.6 107.4 -18.49 164 -27 c 21.25 -3.2 43.64 -4.46 62 -7 c 1.06 -0.15 2.79 -2.21 3 -2 c 0.24 0.24 -0.29 3.41 -1 4 c -0.88 0.73 -3.33 0.95 -5 1 c -10.16 0.28 -20.84 0.5 -31 0 c -3.34 -0.16 -6.87 -0.88 -10 -2 l -18 -8"/><path fill="none" stroke="#000000" stroke-width="2" stroke-linecap="round" stroke-linejoin="round" d="M 672 161 l -2 -3"/></svg>