<?xml version="1.0" encoding="UTF-8" standalone="no"?><!DOCTYPE svg PUBLIC "-//W3C//DTD SVG 1.1//EN" "http://www.w3.org/Graphics/SVG/1.1/DTD/svg11.dtd"><svg xmlns="http://www.w3.org/2000/svg" version="1.1" width="233" height="118"><path fill="none" stroke="#000000" stroke-width="2" stroke-linecap="round" stroke-linejoin="round" d="M 4 31 c 0.05 0.09 1.86 3.67 3 5 c 0.71 0.82 1.97 1.61 3 2 c 1.46 0.55 3.31 0.88 5 1 c 7.64 0.55 15.27 1.16 23 1 c 8.09 -0.17 16.4 -0.6 24 -2 c 4.69 -0.86 10.02 -2.75 14 -5 c 3.22 -1.82 6.61 -5.1 9 -8 c 2.04 -2.48 4.3 -6.06 5 -9 c 0.82 -3.43 1.83 -11.34 0 -12 c -3.83 -1.38 -20.1 -0.61 -25 3 c -5.48 4.04 -8.78 16.34 -13 25 c -2.28 4.68 -4.07 9.11 -6 14 c -3.94 9.96 -7.49 18.9 -11 29 c -4.76 13.69 -13 40 -13 40"/><path fill="none" stroke="#000000" stroke-width="2" stroke-linecap="round" stroke-linejoin="round" d="M 9 47 c -0.05 0.12 -2.33 4.58 -3 7 c -1.98 7.17 -4.28 14.84 -5 22 c -0.57 5.72 0.09 13.24 1 18 c 0.21 1.12 2.05 3.07 3 3 c 2.61 -0.19 8.1 -2.26 11 -4 c 1.59 -0.95 2.92 -3.21 4 -5 c 1.88 -3.13 3.77 -6.52 5 -10 c 2.75 -7.78 6.89 -23.35 7 -24 c 0.04 -0.21 -3.25 4.61 -4 7 c -1.14 3.6 -1.68 7.98 -2 12 c -0.34 4.3 -0.24 8.74 0 13 c 0.09 1.67 0.21 4.55 1 5 c 0.94 0.54 4.72 -0.14 6 -1 c 1.23 -0.82 2.39 -3.23 3 -5 c 2.95 -8.57 7.68 -26.16 8 -27 c 0.07 -0.18 0.24 4.05 0 6 c -0.41 3.32 -1.85 6.76 -2 10 c -0.17 3.51 -0.09 9.91 1 11 c 0.75 0.75 5.55 -1.45 7 -3 c 2.64 -2.83 5.25 -7.83 7 -12 c 2.51 -5.98 5.69 -19.16 6 -19 c 0.32 0.16 -3.36 13.57 -4 20 c -0.32 3.17 0.33 9.06 1 10 c 0.33 0.47 2.94 -1.83 4 -3 c 1.82 -2.02 3.75 -4.5 5 -7 c 2.67 -5.33 6.8 -16.75 7 -17 c 0.14 -0.17 -2.35 7.95 -3 12 c -0.68 4.26 -1.22 9.41 -1 13 c 0.06 0.99 1.27 2.76 2 3 c 0.83 0.28 3.08 -0.34 4 -1 c 1.11 -0.8 2.45 -2.55 3 -4 c 2.28 -6.08 5.73 -19.38 6 -20 c 0.08 -0.18 0.25 4.03 0 6 l -3 18"/><path fill="none" stroke="#000000" stroke-width="2" stroke-linecap="round" stroke-linejoin="round" d="M 117 38 c 0.02 0.09 0.06 4.53 1 5 c 2.05 1.02 7.49 1 11 1 c 1.62 0 3.56 -0.33 5 -1 c 3.29 -1.54 7.5 -3.67 10 -6 c 1.73 -1.61 2.93 -4.66 4 -7 c 0.55 -1.2 1 -2.73 1 -4 c 0 -2.49 -0.28 -5.66 -1 -8 c -0.52 -1.69 -1.75 -4.03 -3 -5 c -1.35 -1.05 -4.11 -2 -6 -2 c -4.22 0 -9.52 1.06 -14 2 c -1.7 0.36 -3.5 1.08 -5 2 c -6.04 3.68 -12.66 7.44 -18 12 c -5.77 4.92 -11.44 11.05 -16 17 c -2.88 3.76 -4.77 8.54 -7 13 c -0.81 1.62 -1.68 3.38 -2 5 c -0.3 1.51 -0.14 3.33 0 5 c 0.2 2.35 0.39 4.97 1 7 c 0.31 1.04 1.17 2.41 2 3 c 1.24 0.89 3.38 1.68 5 2 c 1.51 0.3 3.43 0.26 5 0 c 2.29 -0.38 4.97 -0.98 7 -2 c 2.4 -1.2 4.77 -3.22 7 -5 c 1.1 -0.88 2.22 -1.89 3 -3 c 1.48 -2.12 3.15 -4.58 4 -7 c 1.4 -4 2.29 -8.73 3 -13 c 0.27 -1.6 0.16 -5.08 0 -5 c -0.2 0.1 -1.1 4.11 -2 6 c -2.42 5.08 -5.91 9.98 -8 15 c -1.13 2.72 -2.39 8.08 -2 9 c 0.23 0.54 3.91 -0.91 5 -2 c 2.46 -2.46 4.86 -6.49 7 -10 c 2.59 -4.25 6.6 -12.9 7 -13 c 0.33 -0.08 -2.55 8.37 -3 12 c -0.15 1.21 0.28 3.59 1 4 c 1.05 0.6 4.78 0.87 6 0 c 2.61 -1.86 5.91 -6.75 8 -10 c 0.67 -1.05 0.45 -2.8 1 -4 c 1.07 -2.34 4.03 -7.14 4 -7 c -0.07 0.3 -4.54 10.91 -6 16 c -0.43 1.49 -0.56 4.16 0 5 c 0.46 0.69 3 1.25 4 1 c 1.22 -0.3 2.86 -1.86 4 -3 c 1.46 -1.46 2.96 -3.18 4 -5 c 2.9 -5.07 8 -16.31 8 -16 c 0 0.33 -5.89 11.31 -8 17 c -1.14 3.09 -2.33 8.19 -2 10 c 0.13 0.73 2.85 1.13 4 1 c 1.5 -0.17 3.84 -0.94 5 -2 c 2.45 -2.24 5.2 -5.81 7 -9 c 2.41 -4.26 6.12 -13.76 6 -14 c -0.11 -0.22 -5.15 8.06 -7 12 c -0.68 1.44 -1.17 3.67 -1 5 c 0.12 0.94 1.2 2.66 2 3 c 1.11 0.47 3.54 0.32 5 0 c 1.3 -0.29 3.11 -1.03 4 -2 c 2.43 -2.65 4.99 -6.53 7 -10 c 1.62 -2.8 4 -8.83 4 -9 c 0 -0.16 -2.93 5.24 -4 8 c -1.25 3.22 -3.31 8.31 -3 10 c 0.15 0.83 3.52 1.13 5 1 c 1.84 -0.17 4.63 -0.84 6 -2 c 2.48 -2.1 5 -5.84 7 -9 c 1.96 -3.1 3.55 -6.53 5 -10 c 1.92 -4.62 5.13 -14.22 5 -14 c -0.31 0.52 -10.5 20.87 -15 31 c -0.67 1.5 -1 3.47 -1 5 c 0 1.24 0.34 3.67 1 4 c 0.82 0.41 3.71 -0.25 5 -1 c 2.33 -1.36 5.22 -3.69 7 -6 c 3.65 -4.72 7.55 -10.48 10 -16 c 2.72 -6.11 5.73 -19.38 6 -20 c 0.08 -0.18 0.24 4.05 0 6 c -0.41 3.32 -1.02 6.73 -2 10 c -2.04 6.79 -6.18 15.3 -7 20 c -0.16 0.94 2.37 3.34 3 3 c 1.78 -0.97 5.55 -5.88 8 -9 c 1.19 -1.51 2.3 -3.22 3 -5 c 4.24 -10.73 11.39 -30.4 12 -33 c 0.1 -0.43 -4.03 1.62 -5 3 c -3.19 4.56 -6.09 11.18 -9 17 c -0.81 1.63 -1.66 3.3 -2 5 l -2 15"/><path fill="none" stroke="#000000" stroke-width="2" stroke-linecap="round" stroke-linejoin="round" d="M 12 17 c -0.03 0.12 -2 4.9 -2 7 c 0 2.1 1 5.01 2 7 c 0.88 1.75 2.53 3.53 4 5 c 1.47 1.47 3.21 2.88 5 4 c 3.51 2.19 7.2 4.27 11 6 c 3.55 1.61 7.21 2.85 11 4 c 4 1.22 7.87 2.3 12 3 c 11.8 2.01 23.01 3.56 35 5 c 5.1 0.61 9.85 0.93 15 1 c 18.84 0.27 36.73 1.05 55 0 c 10.76 -0.62 21.35 -2.97 32 -5 c 3.43 -0.65 6.87 -1.6 10 -3 c 6.44 -2.89 13.28 -6.34 19 -10 c 2.26 -1.45 4.88 -3.75 6 -6 c 2.22 -4.44 3.83 -10.83 5 -16 c 0.42 -1.85 0.52 -4.32 0 -6 c -0.69 -2.25 -2.43 -5.08 -4 -7 c -1.25 -1.53 -3.22 -3.77 -5 -4 c -11.68 -1.49 -30.27 -2.49 -42 -2 c -2.01 0.08 -4.3 2.41 -6 4 c -3.17 2.96 -6.47 6.38 -9 10 c -4.39 6.28 -8.87 12.94 -12 20 c -8.5 19.18 -15.42 38.69 -23 59 c -2.01 5.38 -3.59 10.61 -5 16 l -1 7"/></svg>