<svg id="Capa_1" data-name="Capa 1" xmlns="http://www.w3.org/2000/svg" viewBox="0 0 177.42 118.5"><defs><style>.cls-1{fill:#fff;stroke-width:4px;}.cls-1,.cls-2{stroke:#000;stroke-linecap:round;stroke-linejoin:round;}.cls-2{stroke-width:3px;}.cls-3{font-size:7.13px;font-family:MicrosoftNewTaiLue, Microsoft New Tai Lue;}</style></defs><title>ÍconoCédula</title><rect class="cls-1" x="4.34" y="5.97" width="167.72" height="106.96" rx="20" ry="20"/><circle class="cls-2" cx="132.42" cy="39.62" r="14.28"/><path class="cls-2" d="M105.13,81q0-1,.07-1.88A27.29,27.29,0,0,1,159.7,81Z"/><line class="cls-1" x1="22.75" y1="37.5" x2="97.75" y2="37.5"/><line class="cls-1" x1="24.75" y1="55.5" x2="75.75" y2="55.5"/><line class="cls-1" x1="24.75" y1="68.5" x2="75.75" y2="68.5"/><rect x="37.42" y="85.84" width="3.33" height="13.17"/><rect x="41.67" y="85.84" width="1.67" height="13.17"/><rect x="43.92" y="85.84" width="1.67" height="13.17"/><rect x="46.17" y="85.84" width="0.83" height="13.17"/><rect x="54.17" y="85.84" width="3.33" height="13.17" transform="translate(111.67 184.84) rotate(180)"/><rect x="51.58" y="85.84" width="1.67" height="13.17" transform="translate(104.83 184.84) rotate(180)"/><rect x="49.33" y="85.84" width="1.67" height="13.17" transform="translate(100.33 184.84) rotate(180)"/><rect x="47.92" y="85.84" width="0.83" height="13.17" transform="translate(96.67 184.84) rotate(180)"/><rect x="58.42" y="85.84" width="3.33" height="13.17"/><rect x="62.67" y="85.84" width="1.67" height="13.17"/><rect x="64.92" y="85.84" width="1.67" height="13.17"/><rect x="67.17" y="85.84" width="0.83" height="13.17"/><rect x="75.17" y="85.84" width="3.33" height="13.17" transform="translate(153.67 184.84) rotate(180)"/><rect x="72.58" y="85.84" width="1.67" height="13.17" transform="translate(146.83 184.84) rotate(180)"/><rect x="70.33" y="85.84" width="1.67" height="13.17" transform="translate(142.33 184.84) rotate(180)"/><rect x="68.92" y="85.84" width="0.83" height="13.17" transform="translate(138.67 184.84) rotate(180)"/><rect x="79.42" y="85.84" width="0.83" height="13.17"/><rect x="87.42" y="85.84" width="3.33" height="13.17" transform="translate(178.17 184.84) rotate(180)"/><rect x="84.83" y="85.84" width="1.67" height="13.17" transform="translate(171.33 184.84) rotate(180)"/><rect x="82.58" y="85.84" width="1.67" height="13.17" transform="translate(166.83 184.84) rotate(180)"/><rect x="81.17" y="85.84" width="0.83" height="13.17" transform="translate(163.17 184.84) rotate(180)"/><text class="cls-3" transform="translate(42 106.11)">1 9548989238</text></svg>