<svg id="Capa_1" data-name="Capa 1" xmlns="http://www.w3.org/2000/svg" xmlns:xlink="http://www.w3.org/1999/xlink" viewBox="0 0 85.08 51.5"><defs><style>.cls-1{fill:none;}.cls-2{clip-path:url(#clip-path);}</style><clipPath id="clip-path"><rect class="cls-1" x="54.75" y="8" width="31.05" height="31.85"/></clipPath></defs><title>ÍconoFirma</title><g class="cls-2"><path d="M55.81,34.72s-.88,2.54,2.79,1.95A9.45,9.45,0,0,1,60,36.54c.4,0,.31,1.86,2.06,1.75s1.17-1.9,1.17-1.9,4.07,2.68,4.64,1.55a2.71,2.71,0,0,0,.44-1.66s3.27.8,3.41-.6-.29-1.7-1.61-2.08,6.68.2,11.41-2.12a11,11,0,0,1,3.6-.73c1.64,0,0-8.58,0-8.58a21.73,21.73,0,0,1-6.68-.49c-3.53-.79-4.37-.8-9-2.11L68,22.22a.45.45,0,0,1-.42.23.68.68,0,0,1-.31-.08l-.09,0a.53.53,0,0,1-.3-.68l1.24-2.44-.52-.14-4,8c.83.06,2,.39,1.68,1.8,0,0-.69,1-5,2.28s-4.49,3.61-4.49,3.61Zm0,0"/><path d="M54.91,33.66s-.88,3.43,1.65,3.15c0,0-3.2-.92.47-4.59a5.2,5.2,0,0,1,1.62-1l.63-1.28a4.29,4.29,0,0,1,.58-1.17l4.87-10c-1.56.28-1.8,1.68-3.8,3.27-3,2.39-4.2,3-5.08,6s-1.28,3.89-.93,5.62Zm0,0"/></g><path d="M67.09,18.94l.49-1-1.48-.78-.75,1.54-4.39,9-1.46,3,2.13-.72L63.07,27Zm-4,8.1"/><path d="M68.2,17.91l.06,0c.24-.46.49-1,.74-1.48l.14.07.14.08.15.08.44-.86-.18-.1-.14-.07-.14-.07A40.58,40.58,0,0,0,72.1,8.35L71.43,8a43.28,43.28,0,0,0-4.81,7l-.33.58c-.2.36-.39.71-.57,1l0,0,.24.12.24.12,1.49.78Zm-.48-.25"/><g class="cls-2"><path d="M68.41,19.28l-1.27,2.49c0,.1,0,.25.19.32l.09,0c.15.07.33.05.37,0l1.33-2.61,2.06-4a.16.16,0,0,0,0-.12.37.37,0,0,0-.19-.21l-.09,0a.43.43,0,0,0-.19,0,.2.2,0,0,0-.18.09Zm2.13-4.16"/><path d="M56.42,39.07c-.06.13-.18.68-.05.74s.46-.4.52-.53h0c.31-.07.86-.49,1.73-2.15a8.63,8.63,0,0,1-2,0s-.46,1.49-.18,2Zm0,0"/></g><path d="M15.29,33.35A14.44,14.44,0,0,0,21.7,20c-.83-7.61-13-.33-15.17,3.37-1.93,3.22-2.28,7.27-1.84,11C5.76,43.26,19.11,39,21.88,33c.22-.48-.36-2.2,0-2.5a5.79,5.79,0,0,0-2.12,5.87,3.76,3.76,0,0,0,4.41,2.52c3.12-.63,4.16-4.46,4.89-7.07v-2.5c-.42,2.37-1.25,6.35-.62,8.83.4,1.56.32,2.18,2,1.58,1.15-.42,2.35-2.85,2.94-3.95a17,17,0,0,0,1.27-3q.38-3,.68-.39v-2.5c-.29,2.24-1.36,4.57-1,6.9.17,1,.15,2.19,1.23,2.65,2.92,1.25,3.55-5.37,3.89-7,.16-.79-.22-1.74,0-2.5-.84,2.88-2,10.07,3,9.38,4.31-.59,8.11-5.63,10.07-9.13,2.9-5.18,3.94-11.11,4.82-16.9.06-.4-.25-2.31,0-2.5-6,4.61-5.66,16-6.17,22.78-.39,5.28-.45,10.55-.38,15.84a2,2,0,0,1,0,.37,31.88,31.88,0,0,0,4.2-9.09c.22-.77-.22-1.74,0-2.5-.82,2.86-3.44,12.3-4.14,3.7-.33-4.09.49-8.62,1-12.67.65-5.37.82-12.35,5.5-15.92v-2.5c-1,6.76-2.33,13.73-6.4,19.4-2.06,2.87-10.87,11.24-12.17,3.59v2.46a11.26,11.26,0,0,1,.65-3.8V30c-.34,1.63-.69,5.81-2.22,6.76s-2.45-.33-2.88-1.94v2.46c.09-2.38,1.31-4.65,1-7.08-.45-3.07-1,1.07-1.61,2.41s-4.33,7.81-5.26,3.48V38a28.83,28.83,0,0,1,.6-6.08c.14-.79-.21-1.74,0-2.5-.65,2.33-1.45,5.5-3.83,6.68a4,4,0,0,1-5.46-2v2.46c.05-1.85.87-2.48,2.11-3.5v-2.5c-1.77,3.78-5.26,5.62-9.33,6.07-4.9.54-7.38-.48-7.94-5.56v1c.52-4.79,2.82-8.94,7.23-11.17,2.47-1.25,9.43-3.33,9.85.93V19.39a14.14,14.14,0,0,1-6.4,11.46c-.4.27.38,2.24,0,2.5Z"/></svg>